<?xml version="1.0" standalone="no"?> <!DOCTYPE svg PUBLIC "-//W3C//DTD SVG 1.0//EN" "http://www.w3.org/TR/2001/REC-SVG-20010904/DTD/svg10.dtd" > <svg xmlns="http://www.w3.org/2000/svg" width="100%" height="100%">
<defs >
<font id="false" horiz-adv-x="324" ><font-face
    font-family="false"
    units-per-em="1000"
    panose-1="2 0 5 6 3 0 0 2 0 4"
    ascent="920"
    descent="-298"
    alphabetic="0" />
<missing-glyph horiz-adv-x="464" d="M408 -90H57V752H408V-90ZM376 -60V722H88V-60H376Z" />
<glyph unicode=" " glyph-name="space" horiz-adv-x="165" />
<glyph unicode="!" glyph-name="exclam" horiz-adv-x="191" d="M149 550L133 180H59L43 550H149ZM161 80T161 54T142 9T96 -10T51 9T31 54T50 99T96 118T141 99Z" />
<glyph unicode="&quot;" glyph-name="quotedbl" horiz-adv-x="366" d="M126 399H82Q50 607 50 623Q50 645 66 661T104 677T142 661T158 623L126 399ZM284 399H240Q208 607 208 623Q208 646 224 661T262 677T300 662T316 623L284 399Z" />
<glyph unicode="#" glyph-name="numbersign" horiz-adv-x="381" d="M365 397L353 342H301L271 211H324L311 156H257L222 0H155L193 156H132L96 0H29L66 156H16L29 211H80L110 342H59L71 397H123L158 550H225L189 397H249L285 550H350L314 397H365ZM236 342H175L145
211H205L236 342Z" />
<glyph unicode="$" glyph-name="dollar" horiz-adv-x="335" d="M137 -74V-11Q68 -5 16 45L58 120Q97 72 152 72Q178 72 195 90T212 140Q212 168 194 191T150 235T98 277T54 336T36 417Q36 468 63 505T137 556V628H207V561Q261 555 306 518L268 443Q234 478 190
478Q167 478 152 462T136 417Q136 392 154 370T198 328T250 285T295 225T313 141Q313 86 285 47T207 -6V-74H137Z" />
<glyph unicode="%" glyph-name="percent" horiz-adv-x="471" d="M230 483T230 424T201 327T124 288T47 326T18 424T47 522T124 562T201 523ZM454 185T454 126T425 28T348 -11Q300 -11 271 28T242 126Q242 186 271 225T348 264Q395 264 424 225ZM383 550L135 0H89L337
550H383ZM169 386T169 424T157 486T124 510T91 486T78 424Q78 387 90 364T124 340T157 363ZM394 126Q394 164 382 187T348 211Q326 211 314 188T301 126Q301 89 314 65T348 41T381 65T394 126Z" />
<glyph unicode="&amp;" glyph-name="ampersand" horiz-adv-x="369" d="M373 0H280Q275 7 266 20T255 38Q208 -11 148 -11Q93 -11 59 30T24 142Q24 236 105 305Q76 374 76 423Q76 486 107 524T185 562Q226 562 257 530T289 446Q289 409 273 378T242 331T194 289Q205
266 224 233Q242 202 257 176Q272 220 284 278L352 249Q333 164 301 105Q327 67 373 0ZM163 56Q191 56 219 95Q188 145 173 174Q145 223 139 235Q109 195 109 146Q109 106 125 81T163 56ZM153 423Q153 391 166 355Q213 399 213 444Q213 470 205 484T185 499Q153
499 153 423Z" />
<glyph unicode="&apos;" glyph-name="quotesingle" horiz-adv-x="208" d="M126 399H82Q50 607 50 623Q50 645 66 661T104 677T142 661T158 623L126 399Z" />
<glyph unicode="(" glyph-name="parenleft" horiz-adv-x="237" d="M217 -169L149 -199Q47 8 47 243T149 685L217 656Q150 452 150 243T217 -169Z" />
<glyph unicode=")" glyph-name="parenright" horiz-adv-x="237" d="M87 -199L20 -169Q87 34 87 243T20 656L87 685Q190 479 190 243T87 -199Z" />
<glyph unicode="*" glyph-name="asterisk" horiz-adv-x="313" d="M182 381H131L136 494L41 433L15 478L115 529L15 580L41 625L136 564L131 677H182L177 564L272 625L298 580L197 529L298 478L272 433L177 494L182 381Z" />
<glyph unicode="+" glyph-name="plus" horiz-adv-x="381" d="M352 306H224V157H157V306H29V368H157V511H224V368H352V306Z" />
<glyph unicode="," glyph-name="comma" horiz-adv-x="241" d="M189 32Q189 -16 165 -59T100 -130L57 -95Q82 -80 102 -53T126 -1Q122 -3 111 -3Q87 -3 71 13T55 55Q55 81 73 99T118 118Q148 118 168 95T189 32Z" />
<glyph unicode="-" glyph-name="hyphen" horiz-adv-x="239" d="M208 201H30V283H208V201Z" />
<glyph unicode="." glyph-name="period" horiz-adv-x="239" d="M146 -10T120 -10T75 9T55 54T74 99T120 118T165 99T184 54T165 9Z" />
<glyph unicode="/" glyph-name="slash" horiz-adv-x="216" d="M69 -20H0L147 687H216L69 -20Z" />
<glyph unicode="0" glyph-name="zero" horiz-adv-x="436" d="M401 275Q401 202 385 141T326 34T218 -12Q169 -12 133 13T76 82T46 173T36 275Q36 349 52 410T111 517T218 562Q267 562 303 537T360 469T391 378T401 275ZM293 81T293 275T218 469T143 275T218 81Z" />
<glyph unicode="1" glyph-name="one" d="M267 0H163V414L68 313L7 377L176 550H267V0Z" />
<glyph unicode="2" glyph-name="two" horiz-adv-x="409" d="M363 0H46V88Q265 275 265 380Q265 419 246 444T196 469Q136 469 99 396L30 452Q93 562 203 562Q279 562 325 517T371 396Q371 263 186 92H363V0Z" />
<glyph unicode="3" glyph-name="three" horiz-adv-x="418" d="M203 -129Q143 -129 97 -99T24 -19L97 41Q136 -36 198 -36Q279 -36 279 72Q279 129 254 153T194 178Q164 178 155 176V271Q163 270 190 270Q228 270 250 294T272 366Q272 467 198 467Q135 467 102
397L32 452Q59 504 104 532T203 560Q281 560 328 515T375 381Q375 328 347 284T274 228Q321 218 352 172T383 65Q383 -22 336 -75T203 -129Z" />
<glyph unicode="4" glyph-name="four" horiz-adv-x="403" d="M388 45H337V-117H233V45H15V139L214 550H337V137H388V45ZM233 137V425L101 137H233Z" />
<glyph unicode="5" glyph-name="five" horiz-adv-x="423" d="M208 -129Q145 -129 104 -102T32 -19L103 41Q138 -36 202 -36Q239 -36 261 1T283 91Q283 218 210 218Q162 218 127 160L49 182V550H360V458H153V255Q185 309 247 309Q312 309 351 253T390 93Q390 -2
341 -65T208 -129Z" />
<glyph unicode="6" glyph-name="six" horiz-adv-x="421" d="M223 -12Q171 -12 134 16T76 94T46 203T36 333Q36 484 87 580T240 677Q283 677 319 656T377 597L320 524Q294 584 243 584Q208 584 185 548T152 460T142 349V337Q156 375 185 399T251 424Q312 424 351
368T391 210Q391 116 346 52T223 -12ZM217 81Q252 81 268 117T284 206Q284 334 217 334Q169 334 142 248Q147 81 217 81Z" />
<glyph unicode="7" glyph-name="seven" horiz-adv-x="364" d="M185 -117H74L231 458H19V550H345V478L185 -117Z" />
<glyph unicode="8" glyph-name="eight" horiz-adv-x="419" d="M210 -12Q124 -12 79 34T33 164Q33 223 66 273T142 344Q101 362 71 406T41 508Q41 590 89 633T210 677Q281 677 330 634T379 508Q379 450 349 407T278 344Q321 324 354 274T387 165Q387 82 341 35T210
-12ZM210 379Q220 384 232 394T259 431T275 490Q275 534 259 559T210 584Q144 584 144 490Q144 458 159 431T187 394T210 379ZM210 81Q241 81 261 106T282 179Q282 230 255 266T210 306Q192 302 165 266T138 179Q138 132 157 107T210 81Z" />
<glyph unicode="9" glyph-name="nine" horiz-adv-x="421" d="M180 -128Q90 -128 44 -48L101 25Q127 -35 178 -35Q211 -35 234 0T268 87T279 200V212Q264 174 236 150T170 125Q109 125 70 180T30 339Q30 433 75 497T198 561Q249 561 286 533T345 455T375 346T385
216Q385 65 333 -31T180 -128ZM203 215Q251 215 278 301Q275 468 205 468Q170 468 153 432T136 343Q136 275 155 245T203 215Z" />
<glyph unicode=":" glyph-name="colon" horiz-adv-x="238" d="M146 362T120 362T75 381T55 426T74 471T120 490T165 471T184 426T165 381ZM146 -10T120 -10T75 9T55 54T74 99T120 118T165 99T184 54T165 9Z" />
<glyph unicode=";" glyph-name="semicolon" horiz-adv-x="239" d="M146 362T120 362T75 381T55 426T74 471T120 490T165 471T184 426T165 381ZM189 35Q189 -13 165 -56T100 -128L57 -92Q81 -78 101 -51T126 1Q125 1 120 0T111 -1Q87 -1 71 15T55 58T73 102T118
121Q148 121 168 98T189 35Z" />
<glyph unicode="&lt;" glyph-name="less" horiz-adv-x="381" d="M352 158L29 301V368L352 511V438L103 334L352 232V158Z" />
<glyph unicode="=" glyph-name="equal" horiz-adv-x="381" d="M352 399H29V461H352V399ZM352 207H29V269H352V207Z" />
<glyph unicode="&gt;" glyph-name="greater" horiz-adv-x="381" d="M352 301L29 158V232L278 334L29 438V511L352 368V301Z" />
<glyph unicode="?" glyph-name="question" horiz-adv-x="281" d="M267 443Q267 407 252 377T217 330T183 288T167 239Q167 219 183 201L110 171Q89 199 89 238Q89 276 109 306T150 363T170 421Q170 445 158 463T122 481Q93 481 73 455L27 510Q71 562 145 562Q201
562 234 529T267 443ZM208 80T208 54T189 9T143 -10T98 9T79 54T98 99T143 118T188 99Z" />
<glyph unicode="@" glyph-name="at" horiz-adv-x="620" d="M267 -70Q159 -70 97 6T35 215Q35 322 81 420T206 578T376 639Q469 639 527 574T585 396Q585 268 537 177T425 85Q392 85 371 103T345 153L344 161Q295 85 233 85Q194 85 167 114T140 211Q140 280 162
345T229 455T327 499Q383 499 399 431L410 483H494L438 220Q435 205 435 195Q435 171 441 161T464 151Q475 151 489 167T516 213T538 291T547 395Q547 494 500 548T374 603Q294 603 224 546T113 400T73 216Q73 103 125 34T272 -35Q344 -35 415 21L433 -7Q353 -70
267 -70ZM272 153Q298 153 316 171T354 223L386 371Q374 430 339 430Q305 430 279 395T240 313T228 224Q228 153 272 153Z" />
<glyph unicode="A" glyph-name="A" horiz-adv-x="398" d="M395 0H288L265 136H133L110 0H3L139 667H259L395 0ZM253 228L199 548L145 228H253Z" />
<glyph unicode="B" glyph-name="B" horiz-adv-x="431" d="M240 0H57V667H233Q308 667 347 620T386 497Q386 374 293 344Q338 337 366 290T395 180Q395 97 357 49T240 0ZM208 386Q279 386 279 480Q279 575 208 575H161V386H208ZM212 92Q288 92 288 193Q288 238
269 266T212 294H161V92H212Z" />
<glyph unicode="C" glyph-name="C" horiz-adv-x="412" d="M230 -12Q132 -12 84 82T36 333Q36 490 84 584T230 678Q265 678 292 666T337 630T365 585T385 533L301 502Q289 544 273 564T230 585Q143 585 143 333T230 81Q284 81 302 180L387 149Q348 -12 230 -12Z" />
<glyph unicode="D" glyph-name="D" horiz-adv-x="455" d="M207 0H57V667H206Q314 667 366 576T419 333Q419 180 367 90T207 0ZM206 92Q312 92 312 333Q312 575 206 575H161V92H206Z" />
<glyph unicode="E" glyph-name="E" horiz-adv-x="367" d="M330 0H57V667H330V575H161V386H323V294H161V92H330V0Z" />
<glyph unicode="F" glyph-name="F" horiz-adv-x="365" d="M161 0H57V667H330V575H161V386H323V294H161V0Z" />
<glyph unicode="G" glyph-name="G" horiz-adv-x="435" d="M230 -12Q133 -12 85 80T36 333T84 585T230 678Q346 678 385 533L301 502Q290 543 274 564T230 585Q143 585 143 333T230 81Q273 81 295 116V260H214V352H388V72Q326 -12 230 -12Z" />
<glyph unicode="H" glyph-name="H" horiz-adv-x="463" d="M407 0H302V297H161V0H57V667H161V389H302V667H407V0Z" />
<glyph unicode="I" glyph-name="I" horiz-adv-x="218" d="M161 0H57V667H161V0Z" />
<glyph unicode="J" glyph-name="J" horiz-adv-x="337" d="M115 -12Q51 -12 7 28L39 113Q65 81 104 81Q177 81 177 161V667H281V156Q281 71 237 30T115 -12Z" />
<glyph unicode="K" glyph-name="K" horiz-adv-x="448" d="M442 0H323L204 269L161 184V0H57V667H161V342L314 667H429L264 352L442 0Z" />
<glyph unicode="L" glyph-name="L" horiz-adv-x="351" d="M330 0H57V667H161V92H330V0Z" />
<glyph unicode="M" glyph-name="M" horiz-adv-x="591" d="M535 0H432V465L314 0H277L161 465V0H57V667H192L296 255L402 667H535V0Z" />
<glyph unicode="N" glyph-name="N" horiz-adv-x="463" d="M407 0H308L161 426V0H57V667H161L302 252V667H407V0Z" />
<glyph unicode="O" glyph-name="O" horiz-adv-x="459" d="M229 -12Q131 -12 84 83T36 333Q36 489 83 583T229 678Q328 678 375 584T423 333Q423 178 376 83T229 -12ZM229 81Q316 81 316 333T229 585Q143 585 143 333T229 81Z" />
<glyph unicode="P" glyph-name="P" horiz-adv-x="418" d="M161 0H57V667H218Q305 667 349 609T394 461T350 314T218 255H161V0ZM208 347Q246 347 266 378T287 461T267 544T208 575H161V347H208Z" />
<glyph unicode="Q" glyph-name="Q" horiz-adv-x="459" d="M229 -12Q131 -12 84 83T36 333Q36 489 83 583T229 678Q328 678 375 584T423 333Q423 117 340 33L355 -6L281 -35L270 -7Q248 -12 229 -12ZM229 81H236L185 215L259 244L295 149Q316 213 316 333Q316 585
229 585Q143 585 143 333T229 81Z" />
<glyph unicode="R" glyph-name="R" horiz-adv-x="438" d="M400 0H288L209 255H161V0H57V667H223Q298 667 346 611T394 464Q394 386 368 342T305 280L400 0ZM208 347Q246 347 266 378T287 461T267 544T208 575H161V347H208Z" />
<glyph unicode="S" glyph-name="S" horiz-adv-x="378" d="M175 -12Q75 -12 16 52L63 134Q104 81 169 81Q202 81 223 105T244 167Q244 203 223 233T170 286T108 336T56 404T34 501Q34 577 81 627T206 678Q287 678 340 627L298 547Q261 585 209 585Q179 585 160
564T140 507Q140 476 161 448T214 396T276 344T328 272T350 173Q350 92 302 40T175 -12Z" />
<glyph unicode="T" glyph-name="T" horiz-adv-x="347" d="M225 0H121V575H18V667H329V575H225V0Z" />
<glyph unicode="U" glyph-name="U" horiz-adv-x="464" d="M308 -12T232 -12T107 37T57 184V667H161V179Q161 80 232 80T303 179V667H407V184Q407 87 358 38Z" />
<glyph unicode="V" glyph-name="V" horiz-adv-x="398" d="M259 0H139L3 667H110L199 135L288 667H395L259 0Z" />
<glyph unicode="W" glyph-name="W" horiz-adv-x="587" d="M462 0H355L293 466L232 0H125L14 667H121L183 184L251 667H336L405 184L466 667H573L462 0Z" />
<glyph unicode="X" glyph-name="X" horiz-adv-x="408" d="M408 0H292L204 246L116 0H1L144 340L9 667H124L204 432L284 667H400L264 340L408 0Z" />
<glyph unicode="Y" glyph-name="Y" horiz-adv-x="405" d="M255 0H151V279L-3 667H109L203 382L298 667H408L255 279V0Z" />
<glyph unicode="Z" glyph-name="Z" horiz-adv-x="360" d="M330 0H31V89L206 575H31V667H323V582L145 92H330V0Z" />
<glyph unicode="[" glyph-name="bracketleft" horiz-adv-x="195" d="M177 -190H35V678H177V612H105V-124H177V-190Z" />
<glyph unicode="\" glyph-name="backslash" horiz-adv-x="216" d="M148 -20L1 687H69L216 -20H148Z" />
<glyph unicode="]" glyph-name="bracketright" horiz-adv-x="195" d="M160 -190H17V-124H90V612H17V678H160V-190Z" />
<glyph unicode="^" glyph-name="asciicircum" horiz-adv-x="334" d="M315 333H245L167 590L89 333H19L132 667H202L315 333Z" />
<glyph unicode="_" glyph-name="underscore" horiz-adv-x="279" d="M282 -106H-3V-40H282V-106Z" />
<glyph unicode="`" glyph-name="grave" horiz-adv-x="164" d="M164 556H103L0 700H85L164 556Z" />
<glyph unicode="a" glyph-name="a" horiz-adv-x="347" d="M118 550H229L344 0H244L226 110H121L103 0H2L118 550ZM214 195L173 437L132 195H214Z" />
<glyph unicode="b" glyph-name="b" horiz-adv-x="369" d="M205 0H50V550H200Q266 550 300 511T335 409Q335 311 259 285Q297 275 319 237T342 149Q342 81 309 41T205 0ZM185 85Q243 85 243 161Q243 194 229 216T185 238H148V85H185ZM182 324Q235 324 235 394Q235
465 182 465H148V324H182Z" />
<glyph unicode="c" glyph-name="c" horiz-adv-x="371" d="M208 -12Q119 -12 76 66T33 275T76 483T208 562Q266 562 297 528T348 435L269 409Q247 476 208 476Q133 476 133 275T208 74Q251 74 269 145L348 120Q330 60 299 24T208 -12Z" />
<glyph unicode="d" glyph-name="d" horiz-adv-x="409" d="M187 0H50V550H186Q281 550 328 475T376 274T329 75T187 0ZM186 85Q231 85 254 135T277 274Q277 365 254 415T186 465H148V85H186Z" />
<glyph unicode="e" glyph-name="e" horiz-adv-x="326" d="M293 0H50V550H293V465H148V324H287V238H148V85H293V0Z" />
<glyph unicode="f" glyph-name="f" d="M148 0H50V550H293V465H148V324H287V238H148V0Z" />
<glyph unicode="g" glyph-name="g" horiz-adv-x="391" d="M207 -12Q120 -12 77 65T33 275Q33 408 76 485T207 562Q309 562 347 435L269 409Q259 442 245 459T207 476Q133 476 133 275T210 74Q246 74 263 101V213H200V293H351V59Q292 -12 207 -12Z" />
<glyph unicode="h" glyph-name="h" horiz-adv-x="415" d="M364 0H267V240H148V0H50V550H148V325H267V550H364V0Z" />
<glyph unicode="i" glyph-name="i" horiz-adv-x="198" d="M148 0H50V550H148V0Z" />
<glyph unicode="j" glyph-name="j" horiz-adv-x="298" d="M101 -12Q44 -12 5 24L33 102Q57 74 90 74Q150 74 150 139V550H247V128Q247 57 208 23T101 -12Z" />
<glyph unicode="k" glyph-name="k" horiz-adv-x="397" d="M391 0H280L179 214L148 152V0H50V550H148V300L273 550H380L237 290L391 0Z" />
<glyph unicode="l" glyph-name="l" horiz-adv-x="312" d="M293 0H50V550H148V85H293V0Z" />
<glyph unicode="m" glyph-name="m" horiz-adv-x="519" d="M469 0H373V364L279 0H240L148 364V0H50V550H173L260 211L348 550H469V0Z" />
<glyph unicode="n" glyph-name="n" horiz-adv-x="409" d="M359 0H264L148 350V0H50V550H151L262 212V550H359V0Z" />
<glyph unicode="o" glyph-name="o" horiz-adv-x="416" d="M207 -12Q119 -12 76 67T33 275T76 483T207 562Q296 562 339 483T382 275T339 67T207 -12ZM207 74Q282 74 282 275T207 476Q133 476 133 275T207 74Z" />
<glyph unicode="p" glyph-name="p" horiz-adv-x="363" d="M148 0H50V550H192Q266 550 305 501T344 378Q344 303 305 254T192 205H148V0ZM181 290Q212 290 228 314T244 377T228 440T181 465H148V290H181Z" />
<glyph unicode="q" glyph-name="q" horiz-adv-x="416" d="M207 -12Q119 -12 76 67T33 275T76 483T207 562Q296 562 339 483T382 275Q382 98 307 26L320 -7L251 -34L241 -8Q226 -12 207 -12ZM207 74H210L173 172L242 199L267 133Q282 183 282 275Q282 476 207 476Q133
476 133 275T207 74Z" />
<glyph unicode="r" glyph-name="r" horiz-adv-x="380" d="M351 0H245L182 205H148V0H50V550H193Q264 550 304 502T344 379Q344 318 322 280T269 226L351 0ZM181 290Q212 290 228 314T244 378T228 441T181 465H148V290H181Z" />
<glyph unicode="s" glyph-name="s" horiz-adv-x="335" d="M160 -12Q76 -12 16 45L58 120Q97 72 152 72Q178 72 195 90T212 140Q212 168 194 191T150 235T98 277T54 336T36 417Q36 480 76 521T184 562Q255 562 306 518L268 443Q234 478 190 478Q167 478 152 462T136
417Q136 392 154 370T198 328T250 285T295 225T313 141Q313 74 271 31T160 -12Z" />
<glyph unicode="t" glyph-name="t" horiz-adv-x="294" d="M196 0H98V465H15V550H279V465H196V0Z" />
<glyph unicode="u" glyph-name="u" horiz-adv-x="414" d="M364 -12T207 -12T50 200V550H148V163Q148 74 207 74T266 163V550H364V200Q364 -12 207 -12Z" />
<glyph unicode="v" glyph-name="v" horiz-adv-x="347" d="M229 0H118L2 550H103L173 137L244 550H344L229 0Z" />
<glyph unicode="w" glyph-name="w" horiz-adv-x="514" d="M409 0H310L257 356L204 0H105L6 550H106L159 181L218 550H297L356 180L409 550H509L409 0Z" />
<glyph unicode="x" glyph-name="x" horiz-adv-x="360" d="M360 0H253L180 198L107 0H0L120 280L6 550H113L180 362L246 550H353L240 281L360 0Z" />
<glyph unicode="y" glyph-name="y" horiz-adv-x="358" d="M228 0H130V230L-2 550H101L179 328L257 550H360L228 230V0Z" />
<glyph unicode="z" glyph-name="z" horiz-adv-x="309" d="M284 0H25V75L168 465H25V550H278V477L135 85H284V0Z" />
<glyph unicode="{" glyph-name="braceleft" horiz-adv-x="212" d="M195 -190H166Q122 -190 90 -159T57 -78V147Q57 176 44 195T5 215V273Q30 273 43 292T57 341V565Q57 614 89 646T166 678H195V612H166Q150 612 139 599T127 565V333Q127 263 82 244Q127 225 127
155V-78Q127 -98 138 -111T166 -125H195V-190Z" />
<glyph unicode="|" glyph-name="bar" horiz-adv-x="179" d="M122 -20H57V687H122V-20Z" />
<glyph unicode="}" glyph-name="braceright" horiz-adv-x="212" d="M17 -190V-125H46Q63 -125 74 -112T85 -78V155Q85 225 130 244Q85 263 85 333V565Q85 586 74 599T46 612H17V678H46Q90 678 122 646T155 565V341Q155 312 168 293T207 273V215Q182 215 169 196T155
147V-78Q155 -127 123 -158T46 -190H17Z" />
<glyph unicode="~" glyph-name="asciitilde" horiz-adv-x="407" d="M313 667L380 661Q378 614 374 580T358 505T323 442T264 419T209 448T184 511T169 575T143 604Q120 604 111 565T94 418L27 425Q29 471 34 505T50 580T85 643T143 666Q178 666 198 637T223 573T239
509T264 480Q287 480 296 519T313 667Z" />
</font>
</defs>
</svg>
