<?xml version="1.0" standalone="no"?> <!DOCTYPE svg PUBLIC "-//W3C//DTD SVG 1.0//EN" "http://www.w3.org/TR/2001/REC-SVG-20010904/DTD/svg10.dtd" > <svg xmlns="http://www.w3.org/2000/svg" width="100%" height="100%">
<defs >
<font id="false" horiz-adv-x="520" ><font-face
    font-family="false"
    units-per-em="1000"
    panose-1="2 0 5 6 3 0 0 2 0 4"
    ascent="920"
    descent="-298"
    alphabetic="0" />
<missing-glyph horiz-adv-x="459" d="M425 -90H74V752H425V-90ZM393 -60V722H105V-60H393Z" />
<glyph unicode=" " glyph-name="space" horiz-adv-x="255" />
<glyph unicode="!" glyph-name="exclam" horiz-adv-x="224" d="M275 550L187 245H40L84 550H275ZM69 -13Q29 -13 1 16T-28 86Q-28 133 7 167T89 202Q129 202 157 173T186 103Q186 56 151 22T69 -13Z" />
<glyph unicode="&quot;" glyph-name="quotedbl" horiz-adv-x="469" d="M184 339H110Q107 547 107 571Q107 616 138 646T213 677Q246 677 270 653T294 594Q294 578 285 557L184 339ZM402 339H328Q325 547 325 571Q325 616 356 646T431 677Q464 677 488 653T512
594Q512 578 503 557L402 339Z" />
<glyph unicode="#" glyph-name="numbersign" horiz-adv-x="537" d="M561 410L514 320H443L394 233H466L417 142H344L265 0H152L230 142H169L91 0H-22L56 142H-11L37 233H108L156 320H85L133 410H206L285 550H398L319 410H380L459 550H572L493 410H561ZM329 320H268L220
233H281L329 320Z" />
<glyph unicode="$" glyph-name="dollar" horiz-adv-x="528" d="M139 -74L155 -3Q33 19 -29 83L67 214Q97 180 153 160T269 139Q309 139 309 164Q309 177 282 186T216 207T139 235T73 287T46 372Q46 441 110 500T280 562L295 628H415L397 548Q491 523 551 466L453
347Q419 377 373 394T281 412Q261 412 252 404T243 388Q243 376 270 366T335 345T413 316T479 264T506 178Q506 104 444 48T273 -12L259 -74H139Z" />
<glyph unicode="%" glyph-name="percent" horiz-adv-x="635" d="M345 438Q345 376 301 330T189 283Q131 283 95 315T59 406Q59 469 103 515T213 562Q271 562 308 529T345 438ZM621 550L116 0H26L530 550H621ZM243 434Q243 452 233 463T208 474Q190 474 176 455T162
410Q162 372 195 372Q214 372 228 390T243 434ZM589 146Q589 84 545 38T433 -9Q375 -9 339 23T303 114Q303 177 347 223T457 270Q515 270 552 237T589 146ZM487 142Q487 160 477 171T452 182Q434 182 420 163T406 118Q406 80 439 80Q458 80 472 98T487 142Z" />
<glyph unicode="&amp;" glyph-name="ampersand" horiz-adv-x="578" d="M514 0H325L313 15Q250 -10 192 -10Q104 -10 48 30T-9 143Q-9 219 34 261T150 327Q138 368 138 404Q138 471 191 516T327 562Q399 562 452 527T505 439Q505 402 492 375T453 330T401 301T339
279Q344 269 356 249Q378 210 381 205Q420 247 447 298L561 231Q511 158 445 100Q487 38 514 0ZM222 110Q234 110 248 113Q225 154 221 163Q206 190 191 222Q165 199 165 165Q165 139 180 125T222 110ZM295 404Q295 383 300 367Q365 387 365 424Q365 436 356 444T335
452Q317 452 306 440T295 404Z" />
<glyph unicode="&apos;" glyph-name="quotesingle" horiz-adv-x="252" d="M184 339H110Q107 547 107 571Q107 616 138 646T213 677Q246 677 270 653T294 594Q294 578 285 557L184 339Z" />
<glyph unicode="(" glyph-name="parenleft" horiz-adv-x="346" d="M250 -123L118 -199Q71 -143 47 -56T22 123Q22 280 101 434T311 685L406 588Q314 488 262 354T210 81Q210 -23 250 -123Z" />
<glyph unicode=")" glyph-name="parenright" horiz-adv-x="347" d="M95 609L227 685Q274 629 298 542T323 363Q323 206 244 52T34 -199L-61 -102Q31 -2 83 132T135 405Q135 509 95 609Z" />
<glyph unicode="*" glyph-name="asterisk" horiz-adv-x="363" d="M244 343H161L190 453L89 408L66 481L168 518L86 575L142 639L217 575L236 677H318L288 567L389 613L413 539L312 502L393 445L336 381L261 445L244 343Z" />
<glyph unicode="+" glyph-name="plus" horiz-adv-x="510" d="M490 285H322L279 92H163L206 285H38L61 390H229L270 575H386L345 390H513L490 285Z" />
<glyph unicode="," glyph-name="comma" horiz-adv-x="281" d="M220 97Q220 29 170 -37T42 -141L-18 -79Q66 -45 94 5Q91 4 81 4Q46 4 23 26T0 89Q0 135 36 168T118 202Q160 202 190 174T220 97Z" />
<glyph unicode="-" glyph-name="hyphen" horiz-adv-x="300" d="M253 167H13L46 317H286L253 167Z" />
<glyph unicode="." glyph-name="period" horiz-adv-x="283" d="M98 -13Q58 -13 30 16T1 86Q1 133 36 167T118 202Q158 202 186 173T215 103Q215 56 180 22T98 -13Z" />
<glyph unicode="/" glyph-name="slash" horiz-adv-x="362" d="M69 -20H-61L332 687H463L69 -20Z" />
<glyph unicode="0" glyph-name="zero" horiz-adv-x="628" d="M622 315Q622 254 601 197T541 92T441 17T306 -12Q172 -12 95 53T18 235Q18 296 39 353T99 458T199 533T334 562Q468 562 545 497T622 315ZM416 299Q416 342 393 363T332 384Q282 384 253 344T224 251Q224
208 247 187T308 166Q358 166 387 206T416 299Z" />
<glyph unicode="1" glyph-name="one" horiz-adv-x="483" d="M375 0H173L237 293L100 181L12 300L322 550H496L375 0Z" />
<glyph unicode="2" glyph-name="two" horiz-adv-x="587" d="M494 0H-13L23 168Q199 207 287 255T376 342Q376 384 298 384Q209 384 131 328L50 471Q161 562 322 562Q442 562 517 518T592 394Q592 353 572 315T518 251T452 206T385 176H533L494 0Z" />
<glyph unicode="3" glyph-name="three" horiz-adv-x="605" d="M268 -129Q164 -129 75 -94T-60 10L69 135Q104 93 160 71T266 49Q344 49 344 94Q344 104 340 111T312 124T248 130Q171 130 151 128L191 307Q203 306 287 306Q340 306 363 313T387 342Q387 383 277
383Q188 383 121 340L54 476Q151 560 298 560Q437 560 516 512T596 380Q596 324 541 278T416 221Q543 189 543 72Q543 -17 462 -73T268 -129Z" />
<glyph unicode="4" glyph-name="four" horiz-adv-x="636" d="M564 0H487L461 -117H259L285 0H-36L-2 155L328 550H608L526 176H603L564 0ZM324 176L368 376L198 176H324Z" />
<glyph unicode="5" glyph-name="five" horiz-adv-x="626" d="M287 -129Q80 -129 -24 -5L115 124Q181 49 288 49Q331 49 352 65T373 106Q373 131 346 145T272 159Q235 159 213 152T166 126L37 173L119 550H629L590 374H282L262 280Q312 321 388 321Q474 321 529
270T584 131Q584 21 502 -54T287 -129Z" />
<glyph unicode="6" glyph-name="six" horiz-adv-x="625" d="M319 -12Q182 -12 103 60T24 259Q24 444 130 560T412 677Q555 677 657 596L538 451Q486 499 399 499Q351 499 310 478T252 422Q245 409 241 390Q296 445 395 445Q488 445 551 392T615 253Q615 143 527
66T319 -12ZM318 166Q355 166 379 183T404 228Q404 253 372 269T296 285Q253 285 222 267Q221 261 221 246Q221 209 250 188T318 166Z" />
<glyph unicode="7" glyph-name="seven" horiz-adv-x="575" d="M263 -117H32L349 374H46L85 550H630L599 410L263 -117Z" />
<glyph unicode="8" glyph-name="eight" horiz-adv-x="630" d="M299 -12Q241 -12 189 -2T94 30T25 89T-1 175Q-1 234 41 285T167 363Q128 383 105 417T81 491Q81 554 125 598T233 659T369 677Q443 677 506 660T615 601T661 499Q661 438 619 391T504 326Q601 269
601 181Q601 90 512 39T299 -12ZM354 421Q394 422 419 434T445 464Q445 486 421 499T358 513Q328 513 306 501T284 471Q284 455 305 442T354 421ZM306 152Q340 152 368 165T396 197Q396 235 316 255Q272 253 242 241T212 206Q212 152 306 152Z" />
<glyph unicode="9" glyph-name="nine" horiz-adv-x="625" d="M318 561Q455 561 534 489T613 290Q613 105 507 -11T225 -128Q82 -128 -20 -47L99 98Q151 50 238 50Q286 50 327 71T385 127Q392 140 396 159Q341 104 242 104Q149 104 86 157T22 296Q22 406 110 483T318
561ZM319 383Q282 383 258 366T233 321Q233 296 265 280T341 264Q384 264 415 282Q416 288 416 303Q416 340 387 361T319 383Z" />
<glyph unicode=":" glyph-name="colon" horiz-adv-x="266" d="M98 -13Q58 -13 30 16T1 86Q1 133 36 167T118 202Q158 202 186 173T215 103Q215 56 180 22T98 -13ZM161 276Q121 276 93 305T64 375Q64 422 99 456T181 491Q221 491 249 462T278 392Q278 345 243 311T161
276Z" />
<glyph unicode=";" glyph-name="semicolon" horiz-adv-x="281" d="M220 97Q220 29 170 -37T42 -141L-18 -79Q66 -45 94 5Q91 4 81 4Q46 4 23 26T0 89Q0 135 36 168T118 202Q160 202 190 174T220 97ZM161 276Q121 276 93 305T64 375Q64 422 99 456T181 491Q221
491 249 462T278 392Q278 345 243 311T161 276Z" />
<glyph unicode="&lt;" glyph-name="less" horiz-adv-x="510" d="M446 90L34 270L63 400L555 580L526 450L166 329L473 210L446 90Z" />
<glyph unicode="=" glyph-name="equal" horiz-adv-x="510" d="M509 373H57L80 478H532L509 373ZM469 190H17L40 295H492L469 190Z" />
<glyph unicode="&gt;" glyph-name="greater" horiz-adv-x="510" d="M486 270L-6 90L23 220L384 339L76 460L103 580L515 400L486 270Z" />
<glyph unicode="?" glyph-name="question" horiz-adv-x="395" d="M432 433Q432 400 416 375T376 337T330 313T291 291T274 264Q274 257 280 249L132 220Q121 242 121 266Q121 302 139 327T180 361T220 379T239 395Q239 410 200 410Q150 410 108 378L49 497Q127
561 231 561Q318 561 375 526T432 433ZM158 -13Q118 -13 90 16T61 86Q61 133 96 167T178 202Q218 202 246 173T275 103Q275 56 240 22T158 -13Z" />
<glyph unicode="@" glyph-name="at" horiz-adv-x="783" d="M372 -70Q236 -70 146 20T55 244Q55 401 175 519T452 638Q593 638 680 552T767 343Q767 279 745 228T689 146T618 101T544 85Q460 85 441 151L439 158Q388 85 310 85Q237 85 195 134T153 259Q153 354
218 425T370 497Q454 497 492 441L501 485H659L613 268Q610 253 610 241Q610 203 638 203Q670 203 693 240T717 343Q717 458 645 526T448 594Q308 594 204 490T100 247Q100 130 179 52T377 -27Q470 -27 556 27L580 -7Q482 -70 372 -70ZM378 209Q420 209 452 250L471
345Q452 373 413 373Q369 373 342 343T315 273Q315 244 332 227T378 209Z" />
<glyph unicode="A" glyph-name="A" horiz-adv-x="710" d="M674 0H455L448 78H208L167 0H-72L321 667H575L674 0ZM433 254L414 469L301 254H433Z" />
<glyph unicode="B" glyph-name="B" horiz-adv-x="697" d="M419 0H0L147 667H518Q612 667 661 618T711 501Q711 438 666 387T561 331Q607 318 631 281T656 199Q656 164 643 131T604 67T530 19T419 0ZM447 421Q473 421 484 434T496 466Q496 480 487 489T460 499H314L295
421H447ZM398 168Q423 168 439 181T455 215Q455 232 445 242T417 253H258L239 168H398Z" />
<glyph unicode="C" glyph-name="C" horiz-adv-x="697" d="M376 -12Q229 -12 129 72T28 294Q28 464 143 571T429 678Q499 678 556 659T651 607T713 537T749 457L555 396Q546 443 509 471T420 500Q341 500 289 443T237 308Q237 249 278 208T387 166Q426 166 465
188T522 243L680 141Q623 59 541 24T376 -12Z" />
<glyph unicode="D" glyph-name="D" horiz-adv-x="736" d="M297 0H0L147 667H440Q515 667 583 633T697 532T742 379Q742 325 729 274T682 173T600 85T473 24T297 0ZM310 491L241 176H334Q425 176 479 230T533 364Q533 418 497 454T403 491H310Z" />
<glyph unicode="E" glyph-name="E" horiz-adv-x="596" d="M506 0H0L147 667H653L614 491H310L296 425H593L554 249H257L241 176H545L506 0Z" />
<glyph unicode="F" glyph-name="F" horiz-adv-x="592" d="M202 0H0L147 667H653L614 491H310L296 425H593L554 249H257L202 0Z" />
<glyph unicode="G" glyph-name="G" horiz-adv-x="726" d="M376 -12Q232 -12 130 71T28 294Q28 460 145 569T449 678Q559 678 633 623T736 493L550 417Q542 449 505 474T420 500Q344 500 291 444T237 308Q237 251 277 209T387 166Q437 166 478 196L483 221H359L399
397H724L663 123Q615 59 541 24T376 -12Z" />
<glyph unicode="H" glyph-name="H" horiz-adv-x="751" d="M643 0H441L497 255H258L202 0H0L147 667H349L297 431H536L588 667H790L643 0Z" />
<glyph unicode="I" glyph-name="I" horiz-adv-x="310" d="M202 0H0L147 667H349L202 0Z" />
<glyph unicode="J" glyph-name="J" horiz-adv-x="498" d="M171 -12Q36 -12 -36 54L68 207Q82 190 106 178T156 166Q225 166 241 241L335 667H537L442 238Q413 108 350 48T171 -12Z" />
<glyph unicode="K" glyph-name="K" horiz-adv-x="671" d="M635 0H399L296 241L243 185L202 0H0L147 667H349L297 431L514 667H771L451 357L635 0Z" />
<glyph unicode="L" glyph-name="L" horiz-adv-x="536" d="M455 0H0L147 667H349L241 176H494L455 0Z" />
<glyph unicode="M" glyph-name="M" horiz-adv-x="900" d="M792 0H590L678 401L441 0H351L290 401L202 0H0L147 667H419L465 347L653 667H939L792 0Z" />
<glyph unicode="N" glyph-name="N" horiz-adv-x="750" d="M642 0H448L278 346L202 0H0L147 667H355L515 343L587 667H789L642 0Z" />
<glyph unicode="O" glyph-name="O" horiz-adv-x="766" d="M376 -12Q226 -12 127 73T28 294Q28 455 142 566T429 678Q578 678 677 593T776 374Q776 212 662 100T376 -12ZM387 166Q465 166 516 223T567 358Q567 420 526 460T417 500Q339 500 288 443T237 308Q237
246 278 206T387 166Z" />
<glyph unicode="P" glyph-name="P" horiz-adv-x="662" d="M202 0H0L147 667H499Q582 667 638 610T695 470Q695 429 681 388T635 305T543 237T400 210H248L202 0ZM408 386H410Q440 386 463 402T486 447Q486 491 431 491H310L287 386H408Z" />
<glyph unicode="Q" glyph-name="Q" horiz-adv-x="766" d="M376 -12Q226 -12 127 73T28 294Q28 455 142 566T429 678Q578 678 677 593T776 374Q776 283 737 204T628 71L656 23L495 -50L468 -2Q418 -12 376 -12ZM338 224L499 297L530 241Q567 294 567 358Q567 420
526 460T417 500Q339 500 288 443T237 308Q237 250 274 211T371 166L338 224Z" />
<glyph unicode="R" glyph-name="R" horiz-adv-x="678" d="M597 0H375L329 210H248L202 0H0L147 667H471Q565 667 630 611T695 465Q695 380 648 315T531 225L597 0ZM410 386Q444 386 465 400T486 443Q486 464 470 477T430 491H310L287 386H410Z" />
<glyph unicode="S" glyph-name="S" horiz-adv-x="613" d="M316 -12Q210 -12 121 23T-18 118L102 262Q137 217 201 189T332 160Q358 160 371 169T385 189Q385 204 352 217T272 245T179 283T99 346T66 444Q66 538 141 607T352 677Q435 677 512 649T643 566L522 426Q483
465 427 486T319 507Q300 507 289 500T278 480Q278 466 311 453T391 425T485 387T565 324T598 229Q598 124 521 56T316 -12Z" />
<glyph unicode="T" glyph-name="T" horiz-adv-x="595" d="M345 0H143L251 491H72L111 667H670L631 491H453L345 0Z" />
<glyph unicode="U" glyph-name="U" horiz-adv-x="767" d="M376 -12Q218 -12 137 54T55 232Q55 249 60 274L147 667H352L266 279Q264 269 264 255Q265 219 294 192T376 164Q434 164 469 195T515 279L601 667H806L719 275Q657 -12 376 -12Z" />
<glyph unicode="V" glyph-name="V" horiz-adv-x="710" d="M428 0H174L75 667H294L339 218L582 667H821L428 0Z" />
<glyph unicode="W" glyph-name="W" horiz-adv-x="954" d="M721 0H509L506 378L337 0H125L81 667H302L298 259L489 667H641L652 259L827 667H1059L721 0Z" />
<glyph unicode="X" glyph-name="X" horiz-adv-x="684" d="M648 0H420L334 192L176 0H-72L235 354L90 667H317L392 489L531 667H780L492 331L648 0Z" />
<glyph unicode="Y" glyph-name="Y" horiz-adv-x="664" d="M380 0H178L236 265L75 667H292L366 442L538 667H775L438 265L380 0Z" />
<glyph unicode="Z" glyph-name="Z" horiz-adv-x="600" d="M510 0H-18L17 160L334 491H90L129 667H650L615 508L297 176H549L510 0Z" />
<glyph unicode="[" glyph-name="bracketleft" horiz-adv-x="317" d="M202 -190H-43L150 678H395L370 564H250L108 -76H228L202 -190Z" />
<glyph unicode="\" glyph-name="backslash" horiz-adv-x="362" d="M178 -20L98 687H223L303 -20H178Z" />
<glyph unicode="]" glyph-name="bracketright" horiz-adv-x="317" d="M166 -190H-78L-53 -76H67L209 564H89L114 678H359L166 -190Z" />
<glyph unicode="^" glyph-name="asciicircum" horiz-adv-x="450" d="M450 333H330L298 548L171 333H38L255 667H384L450 333Z" />
<glyph unicode="_" glyph-name="underscore" horiz-adv-x="564" d="M478 -154H-91L-65 -40H504L478 -154Z" />
<glyph unicode="`" glyph-name="grave" horiz-adv-x="275" d="M344 556H224L101 700H256L344 556Z" />
<glyph unicode="a" glyph-name="a" horiz-adv-x="621" d="M264 550H492L584 0H378L371 61H173L140 0H-71L264 550ZM354 222L339 365L261 222H354Z" />
<glyph unicode="b" glyph-name="b" horiz-adv-x="618" d="M383 0H-4L117 550H443Q525 550 572 514T620 422Q620 370 585 327T496 278Q534 265 555 236T576 173Q576 99 524 50T383 0ZM217 151H359Q372 151 380 159T389 181Q389 190 382 196T365 203H227L217 151ZM391
353Q404 353 412 361T420 379Q420 387 415 393T400 399H271L261 353H391Z" />
<glyph unicode="c" glyph-name="c" horiz-adv-x="588" d="M304 -12Q174 -12 96 59T17 240Q17 373 112 467T351 562Q451 562 518 511T605 379L435 323Q428 356 403 377T343 399Q288 399 248 356T208 255Q208 207 237 179T314 151Q382 151 422 222L564 141Q529 77
461 33T304 -12Z" />
<glyph unicode="d" glyph-name="d" horiz-adv-x="637" d="M275 0H-4L117 550H341Q464 550 549 490T634 317Q634 274 625 233T589 149T524 73T421 21T275 0ZM310 161Q379 161 411 204T444 301Q444 389 321 389H268L219 161H310Z" />
<glyph unicode="e" glyph-name="e" horiz-adv-x="530" d="M444 0H-4L117 550H565L530 395H270L261 355H516L482 200H227L217 155H478L444 0Z" />
<glyph unicode="f" glyph-name="f" horiz-adv-x="526" d="M183 0H-4L117 550H565L531 395H270L261 355H516L482 200H227L183 0Z" />
<glyph unicode="g" glyph-name="g" horiz-adv-x="606" d="M311 -12Q185 -12 101 56T17 238Q17 370 112 466T353 562Q440 562 506 521T595 414L427 344Q418 368 395 383T338 398Q281 398 245 356T209 256Q209 208 241 180T321 151Q354 151 376 162L382 189H290L322
333H600L542 69Q434 -12 311 -12Z" />
<glyph unicode="h" glyph-name="h" horiz-adv-x="666" d="M562 0H376L420 200H227L183 0H-4L117 550H304L263 361H456L497 550H683L562 0Z" />
<glyph unicode="i" glyph-name="i" horiz-adv-x="287" d="M183 0H-4L117 550H304L183 0Z" />
<glyph unicode="j" glyph-name="j" horiz-adv-x="444" d="M147 -12Q22 -12 -42 53L58 186Q84 151 129 151Q187 151 200 213L274 550H461L383 195Q358 83 302 36T147 -12Z" />
<glyph unicode="k" glyph-name="k" horiz-adv-x="598" d="M556 0H335L250 187L217 154L183 0H-4L117 550H304L263 363L442 550H668L394 294L556 0Z" />
<glyph unicode="l" glyph-name="l" horiz-adv-x="479" d="M400 0H-4L117 550H304L218 161H435L400 0Z" />
<glyph unicode="m" glyph-name="m" horiz-adv-x="794" d="M690 0H504L570 300L387 0H300L249 300L183 0H-4L117 550H362L405 285L564 550H811L690 0Z" />
<glyph unicode="n" glyph-name="n" horiz-adv-x="665" d="M561 0H369L244 281L182 0H-4L117 550H320L437 285L496 550H682L561 0Z" />
<glyph unicode="o" glyph-name="o" horiz-adv-x="647" d="M310 -12Q181 -12 99 59T17 243Q17 374 113 468T349 562Q478 562 560 491T642 307Q642 176 546 82T310 -12ZM315 151Q374 151 412 194T451 293Q451 338 422 368T344 399Q285 399 247 356T208 257Q208 212
237 182T315 151Z" />
<glyph unicode="p" glyph-name="p" horiz-adv-x="585" d="M183 0H-4L117 550H397Q493 550 549 503T605 378Q605 293 544 229T384 164H219L183 0ZM356 325H371Q389 325 401 336T413 362Q413 389 380 389H269L255 325H356Z" />
<glyph unicode="q" glyph-name="q" horiz-adv-x="647" d="M310 -12Q181 -12 99 59T17 243Q17 374 113 468T349 562Q478 562 560 491T642 307Q642 236 612 174T528 66L545 38L417 -39L395 -1Q353 -12 310 -12ZM284 186L410 263L433 224Q451 256 451 293Q451 338
422 368T344 399Q285 399 247 356T208 257Q208 215 234 185T304 151L284 186Z" />
<glyph unicode="r" glyph-name="r" horiz-adv-x="602" d="M523 0H316L277 164H219L183 0H-4L117 550H396Q496 550 551 504T607 383Q607 308 564 253T459 178L523 0ZM364 325H370Q388 325 400 336T413 363Q413 389 381 389H269L255 325H364Z" />
<glyph unicode="s" glyph-name="s" horiz-adv-x="528" d="M259 -12Q168 -12 92 13T-29 83L67 214Q97 180 153 160T269 139Q309 139 309 164Q309 177 282 186T216 207T139 235T73 287T46 372Q46 443 113 502T289 562Q367 562 437 536T551 466L453 347Q419 377 373
394T281 412Q261 412 252 404T243 388Q243 376 270 366T335 345T413 316T479 264T506 178Q506 101 440 45T259 -12Z" />
<glyph unicode="t" glyph-name="t" horiz-adv-x="501" d="M290 0H104L189 389H46L82 550H553L517 389H375L290 0Z" />
<glyph unicode="u" glyph-name="u" horiz-adv-x="669" d="M333 -12Q192 -12 116 43T40 183Q40 201 45 224L117 550H305L237 242Q235 228 235 223Q235 190 260 171T328 151Q369 151 395 175T430 242L498 550H686L614 225Q588 107 523 48T333 -12Z" />
<glyph unicode="v" glyph-name="v" horiz-adv-x="621" d="M371 0H143L50 550H259L299 200L495 550H705L371 0Z" />
<glyph unicode="w" glyph-name="w" horiz-adv-x="831" d="M623 0H429L424 285L294 0H100L55 550H263L262 240L411 550H552L565 240L701 550H910L623 0Z" />
<glyph unicode="x" glyph-name="x" horiz-adv-x="601" d="M564 0H349L283 159L148 0H-71L185 282L64 550H278L333 404L452 550H671L432 283L564 0Z" />
<glyph unicode="y" glyph-name="y" horiz-adv-x="583" d="M330 0H146L194 220L50 550H256L320 375L458 550H667L378 220L330 0Z" />
<glyph unicode="z" glyph-name="z" horiz-adv-x="531" d="M445 0H-22L7 133L261 387H63L99 550H560L531 418L277 163H481L445 0Z" />
<glyph unicode="{" glyph-name="braceleft" horiz-adv-x="316" d="M202 -190H159Q90 -190 42 -147T-6 -40Q-6 -22 -2 -6L29 133Q31 145 31 151Q31 172 21 184T-9 197L12 291Q64 291 78 355L109 493Q151 678 335 678H395L370 564H310Q250 564 234 494L196 322Q177
244 130 231Q159 214 159 174Q159 156 155 140L123 -5Q121 -17 121 -22Q121 -46 136 -61T175 -76H228L202 -190Z" />
<glyph unicode="|" glyph-name="bar" horiz-adv-x="222" d="M188 -20H74V687H188V-20Z" />
<glyph unicode="}" glyph-name="braceright" horiz-adv-x="316" d="M113 678H156Q225 678 273 635T321 528Q321 510 317 494L286 355Q284 343 284 337Q284 316 294 304T324 291L303 197Q251 197 237 133L206 -5Q164 -190 -20 -190H-80L-55 -76H5Q65 -76 81 -6L119
166Q138 244 185 257Q156 274 156 314Q156 332 160 348L192 493Q194 505 194 510Q194 534 179 549T140 564H87L113 678Z" />
<glyph unicode="~" glyph-name="asciitilde" horiz-adv-x="518" d="M470 667L583 653Q530 401 384 401Q342 401 317 417T285 458T276 506T270 546T255 563Q233 563 210 510T177 401L62 414Q111 667 262 667Q304 667 329 650T361 610T370 562T376 521T391 504Q413
504 437 559T470 667Z" />
</font>
</defs>
</svg>
