<?xml version="1.0" encoding="utf-8"?>
<!-- Generator: Adobe Illustrator 19.0.0, SVG Export Plug-In . SVG Version: 6.00 Build 0)  -->
<svg version="1.1" id="Layer_1" xmlns="http://www.w3.org/2000/svg" xmlns:xlink="http://www.w3.org/1999/xlink" x="0px" y="0px"
	 viewBox="0 0 610.4 596.6" style="enable-background:new 0 0 610.4 596.6;" xml:space="preserve">
<style type="text/css">
	.st1{opacity:0.1;}
	.st2{stroke:#373734;stroke-width:1.3513;stroke-miterlimit:10;}
</style>
<defs>
  <pattern id="pattern1"  width="610.4" height="596.6" patternUnits="userSpaceOnUse" >
    <g class="st1">
    	<path class="st2" d="M297.3,12.7c0.6,0.5,1.1,1.1,1.6,1.6c0.5,0.5,1,1,1.5,1.5c9.4,8.4,19.4,13,28.1,13l0,0
    		c8.6,0,15.9-4.3,21.6-12.7c3.1-4.5,5.6-10,7.1-15.4h-0.3c-1.5,5.4-4,10.7-7,15.2c-5.7,8.3-12.9,12.5-21.4,12.5l0,0
    		c-8.6,0-18.5-4.6-27.9-12.9c-0.5-0.4-0.9-0.9-1.5-1.5c-0.5-0.5-1.1-1.1-1.6-1.6c-4.2-3.7-8.7-7.1-13.1-10.3
    		c-0.7-0.5-1.3-0.9-1.9-1.5H282c0.7,0.6,1.5,1.1,2.3,1.7C288.6,5.6,293.1,9,297.3,12.7z"/>
    	<path class="st2" d="M19.2,39.9c6.1-5.7,12.4-11.5,16.4-19.9c2-4.3,4-11,5-19.3h-0.3c-0.9,8.3-2.9,15-4.9,19.2
    		C31.3,28.2,25.1,34,19,39.7C11.9,46.3,4.6,53.1,1,63.8c-0.1,0.3-0.2,0.6-0.3,1v1c0.2-0.6,0.4-1.2,0.6-1.8
    		C4.9,53.2,12.1,46.4,19.2,39.9z"/>
    	<path class="st2" d="M326.4,15.7L326.4,15.7c3,0,5.9-1,8.5-3.1c2.5-1.9,3.7-3.8,5-5.8c0.5-0.8,1.1-1.7,1.8-2.6
    		c0.5-1.2,0.9-2.4,1.3-3.6h-0.3c-0.4,1.2-0.8,2.3-1.2,3.4c-0.7,0.9-1.2,1.8-1.8,2.6c-1.3,2-2.5,3.8-4.9,5.7c-2.7,2-5.4,3-8.4,3l0,0
    		c-7.8,0-15.3-7-22-13.1c-0.6-0.6-1.2-1.1-1.8-1.6h-0.4c0.7,0.6,1.3,1.2,2,1.8C310.9,8.7,318.4,15.7,326.4,15.7z"/>
    	<path class="st2" d="M5.8,89.3c1.4-7.3,2.7-14.2,4.7-19.1c3.4-8.3,10.5-15.3,18.1-22.7c4.6-4.5,9.4-9.2,13.4-14.4
    		c5-6.4,8.4-12,11.3-18.6c1.7-3.9,3.1-8.4,4.5-12.7c0.1-0.4,0.3-0.8,0.4-1.2h-0.3c-0.1,0.4-0.2,0.7-0.4,1.1
    		c-1.4,4.3-2.8,8.8-4.5,12.7C50.2,21,46.9,26.5,41.8,33c-4,5.1-8.8,9.8-13.4,14.4c-7.6,7.5-14.7,14.5-18.1,22.8
    		C8.3,75,6.9,82,5.5,89.3c-1.4,7.1-2.7,14.4-4.8,19.7c0,0,0,0.1,0,0.1v0.7c0.1-0.3,0.2-0.5,0.3-0.8C3.1,103.7,4.5,96.4,5.8,89.3z"/>
    	<path class="st2" d="M28.9,180.4c9.8,3.9,22,8.8,26.7,18.7c0.3,5.4-1.6,10-3.6,14.9c-2.9,6.8-6.1,14.6-4.3,26.7
    		c1.4,9.2,6.8,15.1,13.1,22c2.6,2.8,5.2,5.7,7.8,9.1c6.6,8.7,11.1,18.5,14.6,27c3.5,8.4,6.3,15.1,15.5,17.3
    		c5.5,1.3,13.3,2.3,18.6,2.8c2.9,0.3,5.7,0.5,8.1,0.5c4.1,0,7.6-0.4,10.5-1.3c6.3-1.9,10.3-7,15.3-13.4c1.5-1.9,3-3.9,4.8-6
    		c1.2-1.4,2.7-3,4.4-4.7c3.5-3.5,7-7.1,8-10c0.4-1.1,0.3-2.1,0.2-3.3c-0.1-0.9-0.2-1.9-0.1-3l0-0.1l0,0c-3.4-4.4-7.4-8-11.4-11.4
    		c-6.7-5.9-13-11.4-15.4-20.5c-1.3-4.8-0.8-9.9,1.4-15.7c2.3-6.1,7.8-12.8,15.4-18.8c3.4-2.7,7.1-5.6,10.9-8.6
    		c17.6-13.7,37.6-29.3,48.5-42.9l0-0.1c0.4-1.7,0.2-3.6-0.3-5.7c-1.4-5.7-5.9-12.5-12.2-18.6c-6.1-5.8-13-10.2-18.5-11.7
    		c-0.4-0.1-1.3-0.4-2.2-0.5c-7.3-1.6-15-0.5-22.3,0.6c-6.4,0.9-12.4,1.9-18.2,1.1c-12.6-1.7-21.7-10.1-25-23.2
    		c-4.2-17.2,7.5-28,18.7-38.4c8.3-7.7,17-15.7,19.2-26.2c2.2-9.9-0.7-20.6-2.5-27.7c-0.7-2.9-1.6-5.7-2.6-8.5h-0.3
    		c1,2.9,1.9,5.7,2.6,8.6c1.8,7,4.6,17.7,2.5,27.5c-2.2,10.4-10.8,18.4-19.1,26.1c-11.3,10.5-23.1,21.3-18.8,38.7
    		c3.2,13.2,12.5,21.7,25.2,23.4c5.9,0.8,11.9-0.1,18.3-1.1c7.3-1.1,14.9-2.2,22.2-0.6c0.9,0.2,1.8,0.4,2.2,0.5
    		c10.9,3,27.5,17.8,30.5,30c0.5,2.1,0.6,3.9,0.3,5.5c-10.9,13.6-30.9,29.1-48.5,42.9c-3.9,3-7.5,5.8-10.9,8.5
    		c-7.6,6.1-13.1,12.8-15.5,19c-2.2,5.8-2.7,11-1.4,15.8c2.4,9.2,8.8,14.8,15.5,20.7c3.9,3.4,8,7,11.3,11.3c-0.1,1.2,0,2.1,0,3
    		c0.1,1.1,0.2,2.1-0.1,3.2c-1,2.8-4.5,6.4-8,9.9c-1.6,1.7-3.2,3.3-4.4,4.7c-1.8,2.1-3.3,4.1-4.8,6c-5,6.4-9,11.5-15.1,13.3
    		c-4.7,1.4-10.8,1.7-18.5,0.8c-5.3-0.6-13-1.5-18.5-2.8c-9.1-2.2-11.9-8.8-15.3-17.1c-3.5-8.5-8-18.3-14.7-27.1
    		c-2.5-3.3-5.2-6.2-7.8-9.1c-6.2-6.8-11.6-12.7-13-21.8c-1.8-12,1.4-19.7,4.2-26.6c2-4.9,4-9.6,3.7-15.1l0-0.1
    		c-4.7-10-17-14.9-26.9-18.9c-2.7-1.1-5.4-2.2-8.5-2.8c-7-1.5-13.6-2.3-19.8-2.6v0.3c6.2,0.2,12.8,1.1,19.8,2.6
    		C23.4,178.2,26.2,179.3,28.9,180.4z"/>
    	<path class="st2" d="M172.1,8.9c0.8,2.9,1.6,5.8,2.5,8.7c1.9,6.3,3.6,12.2,4.3,17.5c0.5,3.8,0.5,7.7,0,10.4
    		c-1.5,8.2-7,14.6-12.3,20.8c-6.1,7.1-12.4,14.4-12.9,24.6c0.7,9.1,10.9,10.4,21.7,11.8c2,0.3,4.1,0.5,6,0.8
    		c7.9,1.3,17.1,3.8,26.4,7.3c3.3,1.2,6.4,2.8,9.5,4.3c5.8,2.9,11.3,5.6,17.8,6.4c0.8,0.1,1.6,0.1,2.5,0.1c4.4,0,8.2-1.2,11.4-2.4
    		c3.3-1.2,6.1-2.4,8.9-3.7c5.9-2.6,11.4-5,20-5.8c1.5-0.2,3.1-0.2,4.6-0.2c9.3,0,17.1,2.4,24.7,4.8c6.5,2.1,12.7,4,19.1,4
    		c1.3,0,2.5-0.1,3.7-0.2c9.7-1.2,17.2-6.2,22.8-15.4c5-8.1,7.8-18.3,10.2-28.1c0.7-2.9,1.9-8.3,2.3-12.2c0.4-3.7-0.1-6.4-1.8-8.2
    		c-2.9-3.4-8.8-3.6-15.6-3.8c-3.1-0.1-6.3-0.2-9.5-0.6c-13.4-1.7-24.7-3.5-37.1-8.7c-10.3-4.3-20.5-9.6-27.3-13.3
    		c-11.4-6.3-24.4-14-33.5-27.1h-0.3c9.2,13.2,22.2,21,33.8,27.3c6.8,3.7,17.1,9,27.3,13.3c12.5,5.2,23.8,6.9,37.2,8.7
    		c3.2,0.4,6.4,0.5,9.5,0.6c6.8,0.2,12.6,0.4,15.5,3.7c1.5,1.8,2.1,4.4,1.7,8c-0.4,3.9-1.6,9.2-2.3,12.1
    		c-4.7,19.5-11.5,40.6-32.8,43.3c-1.2,0.1-2.4,0.2-3.7,0.2c-6.4,0-12.5-1.9-19-4c-7.6-2.4-15.4-4.8-24.7-4.8c-1.5,0-3.1,0.1-4.6,0.2
    		c-8.6,0.8-14.2,3.3-20.1,5.9c-2.7,1.2-5.6,2.5-8.8,3.6c-3.2,1.1-7,2.3-11.3,2.3c-0.8,0-1.7,0-2.5-0.1c-6.4-0.7-11.9-3.4-17.7-6.3
    		c-3.1-1.5-6.2-3.1-9.5-4.3c-9.4-3.5-18.5-6.1-26.5-7.3c-2-0.3-4.1-0.6-6.1-0.8c-10.7-1.4-20.8-2.7-21.5-11.5
    		c0.5-10,6.8-17.4,12.8-24.4c5.4-6.2,10.9-12.6,12.4-20.9c0.5-2.8,0.5-6.7,0-10.5c-0.7-5.3-2.5-11.3-4.3-17.5
    		c-0.8-2.9-1.7-5.8-2.5-8.7c-0.5-1.9-1-3.8-1.6-5.7c-0.2-0.8-0.4-1.6-0.7-2.5h-0.3c0.3,0.9,0.5,1.7,0.7,2.6
    		C171,5.1,171.5,7,172.1,8.9z"/>
    	<path class="st2" d="M20.3,19.4c2.9-4.5,5.4-9.8,5.5-18.8h-0.3c-0.1,8.9-2.6,14.2-5.4,18.6c-3.6,5.6-8.9,8.9-14.4,12.5
    		c-1.7,1.1-3.4,2.2-5,3.3v0.3c1.7-1.2,3.4-2.3,5.2-3.4C11.4,28.5,16.7,25.1,20.3,19.4z"/>
    	<path class="st2" d="M190.5,26c1.7,3.8,3.5,7.8,4.1,11.9c1.7,11.3-4.2,18.6-9.8,25.7c-3.9,4.8-7.5,9.4-8.6,15
    		c-0.3,1.4-0.2,2.3-0.1,3.4c0,0.6,0.1,1.2,0.1,2.1v0c1.4,4,5.7,6.8,9.1,8.4c12.1,6,31.9,8.8,46.3,10.9c2.2,0.3,4.3,0.5,6.6,0.5l0,0
    		c5.6,0,10.8-0.9,16.3-1.9c5.9-1.1,11.9-2.2,19-2.2c1.9,0,3.8,0.1,5.6,0.2c0.4,0,1.4,0.1,2.8,0.2c2,0.1,4.5,0.2,6.2,0.4
    		c5.9,0.4,10.5,1.5,15,2.5c6,1.3,11.6,2.6,20,2.6c0.9,0,1.8,0,2.7,0c6.6-1,12.7-8,15.1-17.4c2-7.7,1.5-18.1-5.8-23.7
    		c-8.6-6.7-33.6-12.6-47.1-13.6c-2.9-0.3-5.3-0.3-7.6-0.3c-2.6,0-5.2,0-8.7-0.3c-9.3-0.8-16.9-4.5-25.7-12.2
    		c-10.8-9.6-16.6-17-25-31.7c-0.9-1.6-1.8-3.5-2.5-5.7h-0.3c0.8,2.2,1.7,4.2,2.6,5.8c8.4,14.7,14.2,22.1,25.1,31.7
    		c8.7,7.8,16.5,11.4,25.8,12.3c3.5,0.3,6.1,0.3,8.7,0.3c2.4,0,4.7,0,7.5,0.3c13.4,1.1,38.4,6.9,46.9,13.6c7.2,5.6,7.6,15.8,5.6,23.5
    		c-2.4,9.2-8.4,16.1-14.9,17.2c-0.9,0-1.8,0-2.6,0c-8.3,0-13.9-1.3-19.9-2.6c-4.5-1-9.1-2-15-2.5c-1.8-0.1-4.2-0.3-6.2-0.4
    		c-1.4-0.1-2.4-0.1-2.8-0.1c-1.9-0.2-3.7-0.3-5.6-0.3c-7,0-13.1,1.1-19,2.2c-5.5,1-10.7,1.9-16.2,1.9l0,0c-2.2,0-4.4-0.1-6.5-0.4
    		c-14.4-2.1-34.1-4.9-46.2-10.9c-3.3-1.6-7.5-4.4-8.9-8.3c0-0.8-0.1-1.5-0.1-2.1c-0.1-1.1-0.2-1.9,0.1-3.3
    		c1.1-5.5,4.7-10.1,8.5-14.9c5.7-7.1,11.5-14.5,9.8-25.9c-0.6-4.1-2.4-8.1-4.1-11.9c-0.7-1.5-1.4-3.1-2-4.6
    		c-2.2-5.5-4.8-12.9-6.5-20.6h-0.3c1.7,7.7,4.3,15.2,6.5,20.7C189.2,22.9,189.8,24.5,190.5,26z"/>
    	<path class="st2" d="M29.9,139.8c3.9-4.3,7.4-9,11-13.9c5.8-7.8,11.8-15.8,19.6-22.4c0.5-0.5,1.1-1.1,1.6-1.6c0.5-0.5,1-1,1.5-1.5
    		c5.1-4.5,10.9-8.1,16.5-11.5c3.9-2.4,7.9-4.9,11.7-7.7c3-2.2,6-4.5,8.9-6.8c4.4-3.4,9-6.9,13.6-10.1c2.2-1.5,4.4-2.9,6.8-4.5
    		c11.7-7.5,25-16,27.1-31.3c1.1-8.1-1.1-18.6-5.6-28h-0.3c4.5,9.4,6.7,19.8,5.6,27.9c-2,15.2-15.3,23.7-27,31.1
    		c-2.4,1.5-4.6,3-6.8,4.5c-4.6,3.2-9.2,6.7-13.6,10.1c-2.9,2.2-5.9,4.6-8.9,6.8c-3.8,2.8-7.8,5.3-11.7,7.6
    		c-5.6,3.5-11.4,7.1-16.5,11.5c-0.5,0.5-1,1-1.5,1.5c-0.5,0.5-1,1.1-1.6,1.6c-7.8,6.6-13.8,14.7-19.6,22.5c-3.7,4.9-7.2,9.5-11,13.9
    		c-7.7,8.6-17.9,14.4-29,16.8v0.3C11.9,154.3,22.2,148.5,29.9,139.8z"/>
    	<path class="st2" d="M12.6,128.9c3.8-5.5,3.8-15.5,3.4-23.6c-0.3-6.5-0.2-19,4.1-29.4c3.3-7.9,11.2-15,18.8-21.8
    		c1.2-1.1,2.3-2.1,3.4-3.1c15.2-13.9,22.8-26.3,29.4-40.8c0.6-1.2,1.1-2.5,1.5-3.8c0.6-1.6,1.2-3.2,2-4.7c0.1-0.3,0.3-0.6,0.5-0.9
    		h-0.3C75.3,1,75.1,1.2,75,1.5c-0.8,1.6-1.4,3.2-2,4.8c-0.5,1.3-1,2.6-1.6,3.8c-6.6,14.4-14.1,26.9-29.3,40.7c-1.1,1-2.3,2-3.4,3.1
    		c-7.6,6.8-15.5,13.9-18.8,21.9c-4.3,10.4-4.4,23-4.1,29.5c0.4,8.1,0.4,18-3.4,23.5c-2.7,3.9-7,6.7-11.7,9.1v0.3
    		C5.5,135.7,9.9,132.9,12.6,128.9z"/>
    	<path class="st2" d="M4.9,8.4c1.8-1.9,2.6-4.9,2.6-7.7H7.2c0,2.9-0.8,5.8-2.5,7.6c-1.2,1.2-2.6,1.9-4,1.9v0v0.3l0,0
    		C2.2,10.4,3.6,9.7,4.9,8.4z"/>
    	<path class="st2" d="M91.6,5.2c-4,4.7-6.9,11.2-9.8,17.4c-0.4,1-0.9,1.9-1.3,2.8c-4.1,8.9-9.3,20-14.9,27.6
    		c-3,4.1-8.1,7.1-13.4,10.3c-7.5,4.5-15.3,9.1-18.4,17.6c-1.1,3.1-1.1,6.4,0,10.6c1.1,2.3,2.9,3.5,5.4,3.5l0,0c4.2,0,9.1-3.2,11.1-5
    		c4-3.4,7.6-8.1,11-12.7c1.8-2.4,3.7-5,5.7-7.3c0.9-1.1,4.2-4.8,6.9-6.4c6.5-3.8,14.7-6.7,23.5-9.8c12.2-4.3,24.7-8.7,32.6-15.9
    		c4.2-3.8,6.6-9.7,6.9-16.2c0.2-7-2.2-13.6-6.8-18.6c-0.8-0.9-1.7-1.8-2.7-2.5H127c1,0.8,2,1.7,2.9,2.7c4.6,5,7,11.5,6.8,18.4
    		c-0.2,6.4-2.6,12.3-6.7,16c-7.8,7.1-20.4,11.5-32.5,15.8c-8.8,3.1-17.1,6-23.5,9.8c-2.8,1.7-6.1,5.4-7,6.5c-2,2.3-3.9,4.9-5.7,7.3
    		c-3.4,4.5-6.9,9.2-10.9,12.6c-2,1.7-6.9,4.9-11,4.9c-2.4,0-4.2-1.1-5.2-3.4c-1-4.1-1-7.4,0.1-10.4c3-8.4,10.7-13,18.2-17.4
    		c5.3-3.2,10.4-6.2,13.5-10.4c5.6-7.6,10.7-18.7,14.9-27.6c0.4-0.9,0.8-1.9,1.3-2.8c2.8-6.2,5.8-12.6,9.8-17.4
    		C93.3,3.5,95.1,2,97,0.7h-0.5C94.7,2,93,3.5,91.6,5.2z"/>
    	<path class="st2" d="M203.2,77.4L203.2,77.4c0.5,0.6,0.8,1.3,1.1,2l0.1,0.1l0,0.1c2.1,1.9,5.1,3,8.7,3l0,0c5,0,10-2.1,12.5-5.3
    		c1.5-1.9,1.9-4.1,1.4-6.3c-1.1-4.2-5.1-5.6-9.4-6.7l0,0l0,0C210.2,65.4,202.5,69.9,203.2,77.4L203.2,77.4z M217.6,64.6
    		c4.3,1.1,8.1,2.4,9.2,6.5c0.5,2.2,0.1,4.3-1.4,6.1c-2.4,3.1-7.3,5.2-12.3,5.2l0,0c-3.5,0-6.5-1.1-8.5-2.9l0-0.1
    		c-0.3-0.7-0.6-1.5-1.1-2.1C202.8,69,212.4,65.4,217.6,64.6z"/>
    	<path class="st2" d="M279.7,82.2l0.1,0.2l0,0c4.5,2.8,12.1,4.7,18.7,4.7l0,0c4.4,0,12-0.9,14-6.8v0c0-2-0.7-3.9-2.2-5.4
    		c-2.9-3-8.6-4.8-14.9-4.8c-8,0-16.6,3.1-16.8,9.9v0l0.1,0C279.2,80.7,279.5,81.5,279.7,82.2z M295.4,70.5c6.2,0,11.9,1.8,14.7,4.7
    		c1.5,1.5,2.2,3.3,2.2,5.2c-1.9,5.7-9.4,6.5-13.7,6.5l0,0c-6.6,0-14-1.9-18.5-4.7l0-0.1c-0.3-0.7-0.6-1.5-1.1-2
    		C279.1,73.5,287.5,70.5,295.4,70.5z"/>
    	<path class="st2" d="M78.7,217c-1.6,6.9-3.3,14-2.6,24.6c5.3,18.5,11.7,32.5,19.2,42.8c1.8,2.4,3.9,5.1,6.7,7.3
    		c3.9,3.1,9.5,5,14.9,5l0,0c5.4,0,10.1-1.9,13.1-5.3c3.3-3.8,4.6-9.2,3.7-16.2c-0.5-3.9-1.9-8-3.3-12c-1.4-3.9-2.8-8-3.3-11.9
    		c-2-15.1,4.4-30.7,17.2-41.8c5.4-4.7,11-8.5,16.4-12.2c5.8-4,11.9-8.2,17.6-13.4c8.7-7.9,18.5-16.8,20.2-30.3v0v0
    		c-1-6.4-3-12.9-10.3-17.6c-4.1-2.7-8.7-3.9-14.3-3.9c-4.8,0-9.8,0.9-15.1,1.9c-5.7,1-11.5,2.1-17.6,2.1c-1.5,0-3-0.1-4.4-0.2
    		c-2.9-0.3-6.5-1.2-10.4-2.1c-5.2-1.2-10.5-2.6-14.7-2.6c-0.9,0-1.7,0.1-2.4,0.2c-5.7,0.9-11.7,5.8-16.4,10
    		c-7.7,7-15,14.3-16.2,20.3c-0.5,2.3-0.3,6.1,0,8.8c0.4,4.1,1.3,7.6,2.2,11c1.5,6,3.1,12.3,2.3,22.3C80.6,208.6,79.7,212.7,78.7,217
    		z M79,181.4c-0.8-3.4-1.7-6.9-2.2-11c-0.3-2.7-0.4-6.4,0-8.7c1.2-5.9,8.4-13.2,16.1-20.1c4.6-4.2,10.6-9.1,16.2-9.9
    		c0.7-0.1,1.5-0.1,2.4-0.1c4.2,0,9.5,1.3,14.6,2.6c3.8,0.9,7.5,1.8,10.4,2.1c1.4,0.1,2.9,0.2,4.4,0.2c6.1,0,12-1.1,17.7-2.1
    		c5.3-0.9,10.2-1.8,15-1.8c5.6,0,10.1,1.2,14.2,3.9c7.2,4.6,9.1,11.1,10.1,17.5c-1.6,13.4-11.4,22.3-20.1,30.1
    		c-5.7,5.2-11.8,9.3-17.6,13.3c-5.4,3.7-11,7.6-16.5,12.3c-12.9,11.1-19.4,26.9-17.3,42.1c0.5,3.9,2,8,3.4,11.9
    		c1.4,3.9,2.8,8,3.3,11.9c0.9,6.9-0.3,12.2-3.6,16c-2.9,3.4-7.5,5.2-12.8,5.2l0,0c-5.3,0-10.8-1.9-14.7-4.9
    		c-2.7-2.2-4.9-4.9-6.6-7.3c-7.6-10.2-13.9-24.2-19.2-42.7c-0.7-10.6,1-17.7,2.6-24.5c1-4.4,2-8.5,2.3-13.4
    		C82.1,193.7,80.5,187.4,79,181.4z"/>
    	<path class="st2" d="M96.3,216.3c0.3,1.2,0.5,2.5,0.7,3.9c0.8,4.9,1.7,10.4,6.6,13l0,0h0c6.1-0.4,9.9-5.8,13.9-11.5
    		c1.5-2,2.9-4.1,4.5-6c8.9-10.3,19-17.2,28.7-23.8c6.8-4.7,13.3-9.1,19-14.4c1.8-0.9,3.1-2.5,4.3-4c0.9-1.1,1.8-2.4,3.1-3.3
    		c5.2-6.5,7-14.2,4.4-19.5c-1.6-3.3-5.6-7.3-15.6-7.3c-1.4,0-2.8,0.1-4.2,0.2c-3.2,0.3-6.9,1-10.8,1.7c-4.3,0.8-9.2,1.7-14.1,2.2
    		c-1,0.1-2,0.2-3,0.3c-13.1,1.3-21,2.2-28.9,11.4c-5.6,6.6-8.6,14.9-9.5,25.9c-0.5,7.1-0.1,14.8,0.3,21.6
    		C96.1,210.2,96.3,213.4,96.3,216.3z M95.9,185.2c0.8-11,3.8-19.1,9.4-25.7c7.8-9.3,15.2-10,28.8-11.4c1-0.1,1.9-0.2,3-0.3
    		c4.9-0.5,9.8-1.4,14.1-2.2c3.9-0.7,7.5-1.4,10.7-1.7c1.5-0.1,2.9-0.2,4.2-0.2c9.9,0,13.8,3.9,15.4,7.2c2.5,5.2,0.8,12.7-4.4,19.1
    		c-1.2,1-2.2,2.2-3.1,3.3c-1.2,1.6-2.4,3.1-4.2,3.9l0,0c-5.7,5.4-12.2,9.8-19,14.4c-9.8,6.6-19.8,13.5-28.8,23.9
    		c-1.6,1.8-3.1,3.9-4.5,6c-4,5.6-7.8,11-13.7,11.4c-4.9-2.6-5.7-7.8-6.5-12.8c-0.2-1.4-0.4-2.7-0.7-3.9c0-2.9-0.2-6.1-0.4-9.5
    		C95.8,200,95.4,192.3,95.9,185.2z"/>
    	<path class="st2" d="M278.9,182.7c2.2,20.1,4.2,39,19.8,52.6c10.5,9.1,27.5,18.8,43.8,18.8l0,0c9.9,0,18.1-3.7,24.2-10.9
    		c5.3-6.3,8.1-13.7,11.2-22.2c0.3-0.9,0.7-1.9,1.1-2.9c0.6-1.6,1.2-3.3,1.9-4.9c3.5-9.2,6.8-17.9,7.6-25.2
    		c1.8-15.9-3.9-22.4-11.1-28.6c-11.1-9.6-25.7-10.4-41-11.1c-3.6-0.2-7.9-0.6-12.5-1c-7.2-0.7-15.2-1.4-22-1.4
    		c-7.3,0-12.1,0.8-14.7,2.6c-10.9,7.2-9.6,24.8-8.5,31.9L278.9,182.7z M287.3,148.6c2.6-1.7,7.3-2.5,14.5-2.5c6.8,0,14.9,0.7,22,1.4
    		c4.5,0.4,8.8,0.8,12.5,1c15.3,0.8,29.8,1.5,40.9,11.1c7.1,6.1,12.8,12.5,11,28.3c-0.8,7.2-4.1,15.9-7.6,25.1
    		c-0.6,1.6-1.2,3.2-1.8,4.9c-0.4,1-0.7,1.9-1.1,2.9c-3.1,8.5-5.9,15.9-11.2,22.1c-6.1,7.2-14.1,10.9-24,10.9
    		c-16.2,0-33.1-9.7-43.6-18.8c-15.6-13.4-17.6-32.4-19.7-52.4l-0.3-2.4C277.8,173.1,276.6,155.7,287.3,148.6z"/>
    	<path class="st2" d="M293.8,185.9c1.9,17.3,3.5,32.3,17.5,43.3c6.5,5.2,18.3,11.2,29.9,11.2l0,0c5.8,0,10.7-1.5,14.5-4.5
    		c10.9-8.5,15.7-26.1,16.4-38.6c0.9-14.4-4.4-27.1-14.2-33.9c-8.9-6.2-20.3-6.9-32.3-7.5c-2.6-0.1-5.3-0.3-7.9-0.3
    		c-7.6,0-16.9,0.9-21.7,8.3c-2.7,5.6-2.6,12.2-2.4,18.5C293.8,183.7,293.8,184.8,293.8,185.9z M296.4,164.2
    		c4.7-7.2,13.9-8.2,21.4-8.2c2.6,0,5.2,0.1,7.9,0.3c12,0.7,23.3,1.2,32.2,7.4c9.6,6.7,14.9,19.3,14,33.6c-0.7,12.5-5.5,30-16.3,38.4
    		c-3.8,2.9-8.6,4.4-14.3,4.4l0,0c-11.5,0-23.2-6-29.7-11.2c-13.9-11-15.4-25.2-17.4-43.1c0-1.1,0-2.2-0.1-3.3
    		C293.9,176.3,293.7,169.8,296.4,164.2z"/>
    	<path class="st2" d="M121.6,183.2L121.6,183.2c0.5,0.3,0.8,0.7,1.2,1.1c0.4,0.5,0.9,1,1.4,1.2l0,0h0.1c8-1.4,17.1-5.6,23.7-10.8
    		c2.6-2.1,5.7-4.9,6.3-8.5l0-0.1l0-0.1c-0.4-0.5-0.9-1-1.3-1.5c-0.4-0.3-0.7-0.7-1-1l0-0.1H152c-1.2-0.1-2.5-0.2-3.8-0.2
    		c-7,0-16.5,2.1-22.2,8C122.9,174.6,121.4,178.6,121.6,183.2L121.6,183.2z M126.3,171.5c5.6-5.8,15-7.9,22-7.9
    		c1.3,0,2.5,0.1,3.7,0.2c0.3,0.4,0.7,0.7,1,1c0.5,0.4,0.9,0.9,1.2,1.4c-0.6,3.5-3.6,6.2-6.2,8.3c-6.6,5.2-15.6,9.4-23.6,10.8
    		c-0.5-0.3-0.9-0.7-1.3-1.1c-0.4-0.4-0.7-0.8-1.1-1.1C121.8,178.6,123.2,174.7,126.3,171.5z"/>
    	<path class="st2" d="M323.1,221.4c4.7,3,9.9,4.7,14.8,4.7l0,0c6.4,0,11.8-2.8,15.6-8c8.9-12.2,4.9-35.3-7.9-44.9
    		c-3.4-2.6-9.3-5.8-17.8-5.8c-2,0-4,0.2-6.1,0.5c-8.9,1.5-13.5,8.5-13.4,20.3C308.6,197.1,310.7,213.3,323.1,221.4z M321.9,168.2
    		c2-0.3,4.1-0.5,6-0.5c8.3,0,14.2,3.1,17.6,5.7c6,4.6,10.3,12.3,11.9,21.4c1.5,8.9,0,17.5-4.1,23.2c-3.7,5.2-9.1,7.9-15.3,7.9l0,0
    		c-4.8,0-10-1.6-14.6-4.6c-12.3-8-14.4-24.1-14.5-33C308.6,176.6,313.1,169.6,321.9,168.2z"/>
    	<path class="st2" d="M36.2,300.2c1.2,2.1,2.3,4.1,3.6,5.8l0.1,0.1c1.8,2.4,5,6.4,9.3,5.7c4.7-0.7,10.9-6.3,9.8-14.5
    		c-0.9-6.5-5.3-11.3-13.8-15.1c-0.5-0.2-1.1-0.5-1.7-0.7c-4.1-1.7-8-3.4-9.8-7.3c-1.9-7.8-2.2-18.2-2.6-29.4
    		c-0.3-9.2-0.7-18.7-1.9-26.9c-2.4-15.7-10.4-25-24.5-28.6c-1.2-0.3-2.5-0.6-3.9-0.8v0.3c1.4,0.2,2.6,0.5,3.8,0.8
    		c14,3.5,22,12.8,24.3,28.4c1.2,8.1,1.6,17.6,1.9,26.9c0.4,11.1,0.8,21.6,2.6,29.4c1.9,4.1,5.8,5.7,10,7.5c0.6,0.3,1.1,0.5,1.7,0.7
    		c8.4,3.7,12.8,8.4,13.6,14.9c1.1,8-4.9,13.4-9.5,14.1c-4.2,0.6-7.2-3.3-9.1-5.6l-0.1-0.1c-1.3-1.7-2.4-3.7-3.6-5.8
    		c-3.7-6.6-7.4-13.4-18.2-11.7c-5.1,0.8-10.8,3.5-17.5,8.3v0.4c6.7-4.8,12.5-7.5,17.6-8.3C28.9,287,32.6,293.7,36.2,300.2z"/>
    	<path class="st2" d="M7.7,262.8c6.2-6.9,9.6-17.1,9.2-28c-0.4-10.5-4.3-20.1-10.5-25.7c-1.8-1.3-3.8-2.2-5.7-2.7v0.3
    		c1.9,0.5,3.7,1.4,5.5,2.6c6.1,5.6,10,15.1,10.4,25.5c0.4,10.8-2.9,20.9-9.1,27.8c-2.1,2.3-4.4,4.2-6.8,5.8v0.3
    		C3.2,267.1,5.6,265.1,7.7,262.8z"/>
    	<path class="st2" d="M261.3,264.6c-0.3-1.9-1.1-4.1-1.9-5.9c-6-14.8-19.9-30.4-30.1-39.1c-7-6-12.8-9.5-17.2-10.4
    		c-0.9-0.2-2-0.3-3.1-0.3c-12.1,0-27,12.3-27.9,23.1c0,0.5,0.2,1.1,0.3,1.6c0.2,0.8,0.4,1.6,0.3,2.5v0l0,0
    		c4.3,10.1,9.2,19.7,14.6,28.5c2.4,4,4.8,7.8,8,11c7.7,7.7,21.1,13.1,32.6,13.1l0,0c6.3,0,11.6-1.6,15.7-4.7
    		C259.6,278.6,262.5,272.2,261.3,264.6z M237,288.3L237,288.3c-11.4,0-24.7-5.4-32.4-13c-3.2-3.1-5.6-6.9-8-10.9
    		c-5.3-8.8-10.2-18.3-14.5-28.4c0.1-0.9-0.1-1.8-0.3-2.5c-0.1-0.5-0.3-1-0.3-1.5c0.9-10.7,15.7-22.8,27.7-22.8c1.1,0,2.1,0.1,3,0.3
    		c4.4,0.9,10.1,4.4,17.1,10.4c10.1,8.8,24,24.3,30,39c0.7,1.8,1.6,4,1.9,5.9c1.2,7.5-1.7,13.8-8.5,19
    		C248.5,286.7,243.3,288.3,237,288.3z"/>
    	<path class="st2" d="M234.8,240.9c-6.1-5.6-13.4-9.6-19-10.5c-1.1-0.2-2.1-0.3-3-0.3c-3.5,0-6.3,1.1-8.4,3.3
    		c-2.4,2.5-3.6,6.5-3.4,11.1c2.5,10.6,5,19.3,12.4,25.3c4.7,3.9,12,6.4,18.4,6.4l0,0c7.8,0,13.2-3.6,14.8-9.8
    		c0.5-1.8,0.4-4.5,0.1-6.3C245.8,253.9,241.4,246.9,234.8,240.9z M246.3,266.4c-1.6,6.1-6.8,9.5-14.5,9.5l0,0
    		c-6.4,0-13.6-2.5-18.3-6.3c-7.4-6-9.9-14.6-12.3-25.2c-0.2-4.5,1-8.4,3.4-10.9c2-2.1,4.8-3.1,8.2-3.1c0.9,0,1.9,0.1,3,0.3
    		c11.7,1.9,28.6,16.5,30.7,29.5C246.7,261.9,246.8,264.6,246.3,266.4z"/>
    	<path class="st2" d="M302.9,289L302.9,289l-0.1,0c-0.8-0.1-1.5-0.1-2.2-0.1c-1.6,0-3.2,0.3-4.9,0.7c-8.9,2.6-17.9,10.3-20.9,18
    		c-2.1,5.4-1.2,11.3-0.4,17.1c0.8,5.3,1.5,10.3,0,14.8c-2.3,6.8-8.4,11.1-14.3,15.2c-6.2,4.4-12.7,8.9-14.3,16.4
    		c-0.9,5.3,0.4,10.3,4,14.5c5,5.9,14.1,9.8,23.3,9.8l0,0c6,0,11.2-1.6,15.2-4.6c3.1-2.3,5.3-5.6,7.5-9l0.4-0.5
    		c2.2-4.4,3-9.8,3.8-15.4c0.7-4.9,1.4-10,3.2-15.1c1-3,2.1-5.5,3.2-7.9c3.2-7.4,6-13.8,4.7-29.4C310.1,304.4,308.5,293.5,302.9,289z
    		 M305.9,342.8c-1.1,2.4-2.2,4.9-3.2,7.9c-1.7,5.1-2.4,10.2-3.2,15.1c-0.8,5.6-1.6,10.9-3.8,15.3l-0.3,0.5c-2.4,3.5-4.4,6.6-7.5,8.9
    		c-3.9,3-9.1,4.5-15,4.5c-9,0-18.1-3.8-23.1-9.7c-3.5-4.1-4.8-9.1-3.9-14.3c1.6-7.3,7.7-11.6,14.2-16.2c6-4.2,12.1-8.5,14.4-15.4
    		c1.5-4.5,0.8-9.5,0-14.9c-0.9-5.7-1.7-11.7,0.4-17c2.9-7.6,11.8-15.2,20.7-17.8c1.7-0.5,3.2-0.7,4.8-0.7c0.7,0,1.4,0,2.2,0.1
    		c5.6,4.4,7.1,15.2,7.9,24.2C311.9,329.1,309.2,335.4,305.9,342.8z"/>
    	<path class="st2" d="M43.1,345c-1.4-1.2-2.9-1.8-4.6-1.8c-2.8,0-6,1.8-8.6,4.9c-3.3,3.8-5.1,8.7-4.5,12.3c1.3,6,6.8,9.2,11.5,9.2
    		l0,0c3.3,0,6.2-1.5,8.1-4.1C49,360.2,47.9,349.1,43.1,345z M44.9,365.3c-1.9,2.6-4.7,3.9-7.9,3.9l0,0c-4.6,0-10-3.1-11.3-9
    		c-0.5-3.4,1.2-8.3,4.5-12.1c2.6-3,5.7-4.7,8.4-4.7c1.6,0,3.1,0.5,4.4,1.7C47.6,349.2,48.7,360.1,44.9,365.3z"/>
    	<path class="st2" d="M145.9,382.2c-0.2-0.4-0.5-0.9-0.6-1.4l0,0l0,0c-1.1-0.8-2.4-1.2-3.7-1.2c-2,0-4.1,1-5.6,2.6
    		c-1.4,1.5-2.1,3.4-1.9,5.3l0,0c1,2,2.7,3.1,4.8,3.1l0,0c3.3,0,7.3-2.9,7.7-6.7v0v0C146.5,383.2,146.2,382.7,145.9,382.2z
    		 M138.9,390.2L138.9,390.2c-2,0-3.7-1-4.6-2.9c-0.2-1.8,0.5-3.6,1.8-5c1.4-1.5,3.5-2.5,5.4-2.5c1.2,0,2.4,0.4,3.5,1.2
    		c0.1,0.5,0.4,0.9,0.6,1.4c0.3,0.5,0.5,0.9,0.6,1.5C145.9,387.4,142.1,390.2,138.9,390.2z"/>
    	<path class="st2" d="M527.1,5.9c6.8,3.3,14.8,3.7,21.5,0.9c3.3-1.4,6.2-3.5,8.3-6.1h-0.3c-2.1,2.5-4.8,4.5-8.1,5.9
    		c-6.6,2.7-14.5,2.4-21.3-0.9c-2.2-1.1-4.3-2.7-6.2-5h-0.4C522.6,3.1,524.8,4.8,527.1,5.9z"/>
    	<path class="st2" d="M285.3,17.5c2.7,1.9,5.2,3.9,7.6,5.8c5.9,4.6,11.5,9,17.7,11.1c6.9,3.4,13.5,5.2,19.8,5.2
    		c5.2,0,10.2-1.2,14.9-3.6c13.9-7,21.7-22.3,24.7-35.3h-0.3c-3,12.9-10.7,28.1-24.6,35c-10.3,5.2-21.9,4.6-34.5-1.6
    		c-6.1-2-11.7-6.4-17.6-11.1c-2.4-1.9-5-3.9-7.7-5.8c-2.9-2-5.8-4-8.7-5.9c-5.2-3.5-10.4-6.9-14.9-10.6h-0.5
    		c4.6,3.9,9.8,7.3,15.2,10.9C279.4,13.5,282.4,15.4,285.3,17.5z"/>
    	<path class="st2" d="M385,22.8c1.9,4.6,6,6.8,12.6,6.8c3.4,0,6.8-0.6,9.6-1h0.1c0.6-0.1,1.3-0.1,2-0.1c2.6,0,5.3,0.8,7.9,1.5
    		c1.3,0.4,2.7,0.8,4.1,1.1c1.1,0.3,2.2,0.4,3.3,0.7c4.5,0.9,9.1,1.8,13.3,3.7c1.6,0.8,3.3,1.5,5,2.2c8.1,3.5,16.6,7.2,22,14.3
    		c0.3,0.4,0.6,0.9,1,1.3c3.8,5.7,7.1,11.7,10.3,17.6c3.6,6.6,7.3,13.5,11.8,19.7c4.3,6.1,10.2,12.8,15.8,19.4c2,2.3,3.8,4.4,5.6,6.5
    		c9,10.6,17.4,20.6,33,20.6h0c4,0,8.2-0.6,13-1.9c13.5-3.6,37.3-12.7,45.5-32.4c2.2-5.2,3.6-12.5,5.1-20.2
    		c1.2-5.8,2.4-11.8,3.9-16.8v-1c-1.7,5.2-2.9,11.6-4.1,17.7c-1.5,7.7-3,14.9-5.1,20.1c-8.1,19.6-31.8,28.6-45.3,32.2
    		c-4.7,1.3-9,1.9-12.9,1.9h0c-15.4,0-23.9-9.9-32.7-20.5c-1.8-2.1-3.7-4.3-5.6-6.5c-5.6-6.5-11.4-13.3-15.8-19.3
    		c-4.4-6.2-8.1-13.1-11.7-19.7c-3.2-5.9-6.5-12-10.3-17.7c-0.3-0.4-0.6-0.9-1-1.4c-5.5-7.1-14-10.8-22.1-14.4
    		c-1.7-0.7-3.4-1.5-5-2.2c-4.2-1.9-8.8-2.8-13.3-3.7c-1.1-0.2-2.2-0.4-3.3-0.7c-1.3-0.3-2.7-0.7-4.1-1.1c-2.6-0.8-5.3-1.6-8-1.6
    		c-0.7,0-1.4,0.1-2,0.1l-0.1,0c-2.8,0.5-6.2,1-9.6,1c-6.5,0-10.6-2.2-12.4-6.6c-1.9-4.5-1.3-12.2-0.7-19.1c0.1-1,0.2-2,0.2-3h-0.3
    		c-0.1,1-0.1,1.9-0.2,2.9C383.8,10.5,383.2,18.2,385,22.8z"/>
    	<path class="st2" d="M501.8,9.3c8.4,11.4,23.3,18.1,39.8,18.1c4.1,0,8.1-0.4,11.9-1.2c14.7-3.3,19.4-13.3,21.5-25.5h-0.3
    		c-0.7,3.9-1.6,7.5-3,10.8c-3.4,7.9-9.2,12.5-18.3,14.5c-3.8,0.8-7.7,1.2-11.8,1.2c-16.4,0-31.2-6.7-39.6-18
    		c-0.9-2.4-1.7-5.3-2.5-8.5h-0.3C500,3.9,500.9,6.8,501.8,9.3L501.8,9.3z"/>
    	<path class="st2" d="M421.7,15.3c7.5,1.1,14.6,3.3,21.5,5.4c4.4,1.4,9,2.8,13.7,3.9c3,0.7,6,1.3,8.6,1.7c2.7,0.4,5.1,0.6,7.1,0.6
    		l0,0c4.1,0,6.5-0.8,7.3-2.5c2.1-4.5,3.7-14.3,3.8-23.8h-0.3c-0.1,9.4-1.7,19.1-3.7,23.6c-0.7,1.6-3.1,2.3-7,2.3c-2,0-4.3-0.2-7-0.6
    		c-2.6-0.4-5.6-1-8.6-1.7c-4.7-1.1-9.2-2.6-13.7-3.9c-6.9-2.2-14-4.4-21.6-5.5c-7.4-1.1-13.3-6.1-16.7-14.3h-0.3
    		C408.1,9,414.1,14.2,421.7,15.3z"/>
    	<path class="st2" d="M586.3,8c-0.4,10.4-0.7,19.4-7.6,24.7c-7.2,5.6-19.7,7.1-28.9,8.3c-0.9,0.1-1.8,0.3-2.7,0.4
    		c-1.6,0.2-3.2,0.3-4.9,0.3l0,0c-9.3,0-19.3-3.1-28.9-6.2c-8.6-2.7-17.5-5.5-25.8-6h0l0,0c-4.7,1.4-5.9,6.4-5.5,10.7
    		c1.4,16.7,7.2,30.4,20.4,47.3c2.6,3.4,5.1,6.8,7.5,10.2c4.1,5.6,7.9,11,12.4,16c6.7,7.6,15.2,11.4,25.1,11.4l0,0
    		c11.5,0,24.5-5.4,35.6-14.8c11.4-12.4,13.1-28.8,13.9-44.5c0.1-1.2,0.1-2.5,0.1-3.9c0.2-6.3,0.4-14.2,3.5-18.1
    		c2.7-3.4,5.9-6.1,9.2-8.4v-0.3c-3.4,2.4-6.7,5-9.5,8.6c-3.1,3.9-3.3,11.8-3.5,18.2c0,1.4-0.1,2.7-0.1,3.9
    		c-0.8,15.7-2.5,32-13.8,44.3c-11,9.3-23.9,14.7-35.4,14.7c-9.9,0-18.3-3.8-24.9-11.3c-4.5-5-8.3-10.3-12.4-16
    		c-2.4-3.3-4.9-6.7-7.5-10.1c-13.1-16.8-19-30.5-20.3-47.2c-0.5-4.1,0.7-9.1,5.2-10.4c8.3,0.5,17.1,3.3,25.7,6
    		c9.6,3,19.6,6.2,29,6.2l0,0c1.7,0,3.4-0.1,5-0.3c0.8-0.1,1.8-0.2,2.7-0.3c9.2-1.2,21.8-2.8,29-8.3c7-5.4,7.4-14.4,7.8-24.9
    		c0.1-2.2,0.1-4.4,0.3-6.7c0-0.2,0-0.4,0.1-0.6h-0.3c0,0.2,0,0.4,0,0.6C586.5,3.5,586.4,5.8,586.3,8z"/>
    	<path class="st2" d="M590.7,147.8L590.7,147.8c-2,1.6-4.9,3.9-4.6,7.1l0,0.1l0,0c0.6,0.5,1.2,1.1,1.7,1.6l0,0h0
    		c3.6,0.7,7.2,1.1,10.9,1.1l0,0c3.7,0,7.4-0.4,11-1.1v-0.3c-3.6,0.8-7.3,1.1-11,1.1c-3.6,0-7.2-0.4-10.7-1.1c-0.5-0.5-1-1.1-1.6-1.6
    		c-0.3-3,2.4-5.2,4.4-6.8l0,0c3.4-2.7,7.9-4.8,12.7-7c2.1-0.9,4.1-1.9,6.2-2.9v-0.3c-2.1,1-4.2,2-6.3,3
    		C598.7,143,594.1,145.1,590.7,147.8z"/>
    	<path class="st2" d="M603,3.1c0.3,3.9,3.5,7.4,6.8,7.4v-0.3c-3.2,0-6.2-3.3-6.5-7.1c-0.1-0.8-0.1-1.6,0-2.4H603
    		C602.9,1.4,602.9,2.2,603,3.1z"/>
    	<path class="st2" d="M563.6,55.3c-1.9,0-3.8,0.2-5.8,0.6c-4.3,0.8-8.9,2.2-13.8,3.6c-5.5,1.6-11.2,3.3-16.6,4.2
    		c-5,0.9-7.2,3.1-6.6,6.8v0c1.8,3.7,3.1,7.8,4.5,12.2c3.1,9.5,6.3,19.3,14.1,24.4c3.7,2.4,8.1,3.7,12.9,3.7l0,0
    		c7.8,0,15.8-3.3,21.4-8.7c4.6-4.5,8-11.9,9-19.7c1.1-8.2-0.5-16-4.5-21.4C575.6,57.5,569.9,55.3,563.6,55.3z M573.6,101.9
    		c-5.6,5.4-13.5,8.7-21.2,8.7c-4.7,0-9.2-1.2-12.8-3.6c-7.7-5-10.9-14.8-14-24.3c-1.4-4.3-2.7-8.5-4.5-12.2
    		c-0.5-3.5,1.5-5.6,6.4-6.5c5.4-1,11.1-2.6,16.6-4.2c4.9-1.4,9.5-2.8,13.7-3.6c2-0.4,3.9-0.6,5.7-0.6c6.2,0,11.8,2.2,14.4,5.7
    		C586.7,72.9,582.7,93,573.6,101.9z"/>
    	<path class="st2" d="M240.2,181c1.4,2.7,2.9,5.5,4.1,8.3c1.1,2.4,2.2,4.9,3.3,7.3c6.6,14.9,13.3,30.4,23.2,42.8
    		c3.8,4.7,8.4,9.3,12.8,13.7c4.2,4.2,8.2,8.1,11.4,12.2c1.6,1.9,2.9,4,4.2,6c2.7,4.2,5.3,8.2,9.6,11l0,0l1.2-0.1
    		c16.4-1,30.5-1.8,45.6-4.6c10.7-1.9,18.3-4,22.5-6.2c8.7-4.5,11-12.4,13.6-20.9c0.3-0.9,0.5-1.8,0.8-2.6c3.7-11.9,9-24.1,22.8-31.6
    		l0-0.1c0.1-0.1,0.2-0.3,0.3-0.4c2.9-1.5,5.7-3,8.6-4.5c5-2.6,10.1-5.4,15.2-8c2.2-1.1,4.4-2.3,6.5-3.4c3.3-1.8,6.8-3.6,10.2-5.3
    		c2.4-1.1,4.5-2.7,6.5-4.2c0.5-0.4,1-0.8,1.5-1.2c1.9-1.4,4-2.8,6.4-3.7c4.5-1.8,9.5-2,14.3-2.2c4.2-0.2,8.5-0.4,12.5-1.6
    		c3.9-1.1,6.5-2.1,8.8-5.4c7.2-10.6,3.6-18.5-2.4-28.4c-6.2-10.5-13.8-18.6-22.6-24.3c-1.6-1-3.3-1.8-4.9-2.6
    		c-1.8-0.9-3.7-1.8-5.4-2.9c-2-1.4-3.9-2.8-5.7-4.3c-1.5-1.2-3-2.4-4.6-3.5c-6.4-4.6-14-9.7-22.5-12.7c-2.8-1-6.2-1.2-8.5-1.2
    		c-2.3,0-4.8,0.2-6.9,0.6c-2.6,0.5-4.8,1.7-7,2.9c-0.9,0.5-2,1.1-3,1.6c-1.1,0.5-2.3,0.9-3.5,1.3c-1.5,0.5-3,1-4.4,1.8
    		c-3.5,1.9-6.8,4.1-10,6.3c-3.1,2.1-6.4,4.2-9.7,6.1c-15.7,8.8-29.1,13.8-42.2,15.7c-3.9,0.6-7.9,0.9-11.8,0.9
    		c-4.9,0-9.7-0.4-14.4-1.3c-3.7-0.7-7.5-1.7-11.1-2.8c-6.4-1.8-13.1-3.7-19.6-3.7c-3.6,0-6.8,0.5-9.9,1.7c-6.2,2.3-11.7,7-17.6,12
    		c-3,2.6-6.1,5.2-9.4,7.7c-0.8,0.5-1.7,1.2-2.8,1.9c-2.4,1.7-5.4,3.8-7.9,5.9c-4.7,4.1-6.1,7.8-4.5,12.9
    		C235.5,172.2,237.8,176.5,240.2,181z M238.9,155.3c2.6-2.2,5.5-4.2,7.9-5.9c1.1-0.7,2-1.4,2.8-2c3.4-2.5,6.5-5.2,9.5-7.7
    		c5.8-5,11.3-9.7,17.5-12c3-1.1,6.2-1.7,9.8-1.7c6.5,0,13.1,1.9,19.5,3.7c3.7,1,7.5,2.1,11.2,2.8c4.7,0.9,9.6,1.3,14.5,1.3
    		c3.9,0,7.9-0.3,11.8-0.9c13.2-1.9,26.6-6.9,42.3-15.7c3.3-1.9,6.5-4,9.7-6.1c3.2-2.2,6.6-4.3,10-6.2c1.4-0.8,2.9-1.3,4.3-1.8
    		c1.2-0.4,2.3-0.8,3.5-1.4c1.1-0.5,2.1-1.1,3-1.6c2.3-1.2,4.4-2.4,6.9-2.9c2.1-0.4,4.5-0.6,6.8-0.6c2.3,0,5.6,0.2,8.4,1.2
    		c8.5,3,16.1,8.1,22.4,12.6c1.5,1.1,3.1,2.3,4.6,3.5c1.9,1.4,3.8,2.9,5.7,4.3c1.7,1.2,3.6,2.1,5.5,3c1.6,0.8,3.3,1.5,4.9,2.6
    		c8.7,5.6,16.3,13.7,22.5,24.2c5.9,9.9,9.5,17.8,2.4,28.2c-2.2,3.2-4.8,4.2-8.6,5.3c-4,1.2-8.3,1.4-12.5,1.6
    		c-4.9,0.2-9.9,0.4-14.5,2.2c-2.4,0.9-4.5,2.4-6.4,3.8c-0.5,0.4-1.1,0.8-1.6,1.2c-2,1.5-4.2,3.1-6.5,4.2c-3.5,1.7-6.9,3.5-10.2,5.3
    		c-2.1,1.1-4.3,2.3-6.5,3.5c-5.1,2.6-10.2,5.3-15.2,8c-2.9,1.5-5.7,3.1-8.6,4.6l0,0c-0.1,0.1-0.3,0.3-0.4,0.4
    		c-13.8,7.7-19.2,19.8-22.9,31.8c-0.3,0.9-0.5,1.8-0.8,2.6c-2.5,8.4-4.9,16.3-13.4,20.7c-4.2,2.2-11.7,4.3-22.4,6.2
    		c-15.1,2.7-29.2,3.6-45.6,4.6l-1.1,0.1c-4.2-2.7-6.8-6.6-9.5-10.8c-1.3-2-2.6-4.1-4.2-6c-3.2-4-7.2-8-11.4-12.2
    		c-4.4-4.4-9-9-12.7-13.7c-9.9-12.4-16.7-27.8-23.2-42.7c-1.1-2.4-2.2-5-3.3-7.3c-1.3-2.8-2.7-5.6-4.2-8.3c-2.4-4.6-4.6-8.8-6-13
    		C233,162.9,234.2,159.3,238.9,155.3z"/>
    	<path class="st2" d="M265.2,200.2l0.5,2.1c5.7,21.3,14.2,33.9,31.3,46.5l0.4,0.3c9.2,6.8,17.2,12.6,26.1,15.4
    		c4.4,1.4,9.9,2.2,15.7,2.2c0,0,0,0,0,0c7.7,0,15.6-1.4,21-3.6c14.3-5.9,19.6-18.5,25.6-33c7.9-19.1,21.9-43.7,42.9-53
    		c3.8-1.7,7.5-2,11.4-2.4c1.5-0.1,3.1-0.3,4.6-0.5c6-0.8,12.6-2.1,20.4-3.8c1.1-0.2,2.2-0.5,3.3-0.7c5.7-1.3,13.2-4.9,15.7-10.8
    		c1.8-4.4,1.6-8.4-0.7-11.8c-6.9-10.3-30.6-13.9-40.3-13.9H443c-4.3,0-8.7,0.4-13,0.9c-2.4,0.3-4.9,0.5-7.3,0.7
    		c-4.1,0.3-7.4,1.5-11.5,4c-4.2,2.7-8.8,3.9-14.3,3.9c-4.1,0-8.3-0.7-12.7-1.4c-1.3-0.2-2.7-0.4-4.1-0.7c-5.8-0.8-12-1.2-19.5-1.2
    		c-4.7,0-9.4,0.1-14,0.3c-4.5,0.1-9.2,0.3-13.8,0.3c-8.4,0-15.1-0.5-21.3-1.6c-1.8-0.3-3.8-0.8-5.9-1.3c-4.5-1.1-9.5-2.3-14.6-2.3
    		c-2.8,0-5.3,0.3-7.7,1.1c-11.8,3.5-21.6,17.9-23.4,29.2c-0.7,4.2-0.6,8.5,0.3,13.6C261.5,186.3,263.3,193.1,265.2,200.2z
    		 M260.1,165.1c1.8-11.1,11.5-25.4,23.2-28.9c2.4-0.7,4.9-1.1,7.6-1.1c5.1,0,10.1,1.2,14.6,2.3c2.1,0.5,4.1,1,5.9,1.3
    		c6.2,1.1,13,1.6,21.4,1.6c4.6,0,9.3-0.1,13.8-0.3c4.6-0.1,9.3-0.3,14-0.3c7.5,0,13.7,0.4,19.5,1.2c1.4,0.2,2.8,0.4,4.1,0.7
    		c4.4,0.7,8.6,1.4,12.7,1.4c5.6,0,10.2-1.2,14.5-3.9c4.1-2.6,7.4-3.7,11.4-4c2.4-0.2,4.9-0.4,7.3-0.7c4.2-0.4,8.7-0.9,13-0.9h0.2
    		c9.7,0,33.2,3.5,40.1,13.8c2.3,3.4,2.5,7.3,0.7,11.6c-2.4,5.8-9.9,9.3-15.5,10.6c-1.1,0.2-2.2,0.5-3.3,0.7
    		c-7.8,1.7-14.5,2.9-20.4,3.7c-1.6,0.2-3.1,0.4-4.6,0.5c-3.9,0.4-7.7,0.7-11.5,2.4c-21.2,9.3-35.1,34-43.1,53.1
    		c-6,14.5-11.2,27-25.5,32.9c-5.4,2.2-13.2,3.6-20.9,3.6h0c-5.8,0-11.2-0.7-15.6-2.1c-8.8-2.8-16.8-8.6-26-15.4l-0.4-0.3
    		c-17.1-12.5-25.5-25.1-31.2-46.3l-0.5-2.1c-1.9-7.1-3.8-13.9-5.1-21.5C259.5,173.6,259.4,169.3,260.1,165.1z"/>
    	<path class="st2" d="M584,195L584,195c-0.7,1.2-1.3,2.3-1.9,3.1c-2,3.2-3.2,5.1-3.8,10.4c-0.5,4.2-0.3,8.5-0.1,12.6
    		c0.2,4.9,0.4,10-0.4,15c-2.9,17.7-17,35.9-32.8,42.4c-1.5,0.6-3.6,1.4-5,1.7c-1.1,0.2-2.2,0.3-3.2,0.3l0,0
    		c-9.3,0-11.4-9.1-13.4-17.9c-0.5-2-0.9-4-1.5-5.9c-2.1-7.2-5-12-9.2-15.6c-4.3-3.5-10-5.8-18.7-7.4c-3.5-0.6-6.7-1-9.9-1
    		c-6,0-11.7,1.1-19.2,3.7c-0.3,0.1-0.6,0.2-0.9,0.3c-4.1,1.4-7.7,2.6-10.2,6.5c-4.8,7.5-8.7,19.5-6.8,28.1
    		c1.8,8.4,7.9,10.1,14.3,11.8c1.2,0.3,2.5,0.7,3.8,1.1c2,0.7,3.5,1.3,4.9,2.1c9.7,5.4,20.4,10.4,33.8,15.5
    		c11.3,4.4,16.8,14,22.1,23.2c5.2,9,10.5,18.3,21.1,22.7c1.6,0.7,3.4,1,5.4,1l0,0c2.3,0,4.9-0.5,7.7-1.5
    		c7.6-2.6,14.4-10.8,19.4-17.5c7.9-10.6,17.8-23.9,29.5-32.4c0.3-0.2,0.6-0.4,0.9-0.6v-0.4c-0.4,0.3-0.7,0.5-1.1,0.8
    		c-11.7,8.5-21.6,21.8-29.5,32.4c-5,6.8-11.8,14.8-19.3,17.5c-2.8,0.9-5.3,1.4-7.6,1.4l0,0c-1.9,0-3.7-0.3-5.3-1
    		c-10.5-4.4-15.8-13.7-21-22.6c-5.3-9.3-10.9-18.9-22.3-23.3c-13.3-5.2-24-10.1-33.7-15.5c-1.4-0.8-3-1.5-5-2.1
    		c-1.2-0.4-2.5-0.7-3.7-1.1c-6.4-1.8-12.3-3.4-14.1-11.6c-1.8-8.5,2-20.5,6.8-27.9c2.4-3.8,5.9-5,10-6.4c0.3-0.1,0.6-0.2,1-0.3
    		c7.4-2.6,13.1-3.7,19.1-3.7c3.1,0,6.3,0.3,9.8,1c16.7,3.1,23.6,8.8,27.7,22.8c0.5,1.9,1,3.9,1.5,5.8c2.1,8.9,4.3,18.1,13.7,18.1
    		l0,0c1,0,2.1-0.1,3.3-0.3c1.5-0.3,3.6-1.1,5.1-1.7c7.8-3.2,15.4-9.3,21.5-17.2c6-7.8,10-16.8,11.5-25.4c0.8-5,0.6-10.1,0.4-15
    		c-0.2-4.2-0.3-8.4,0.1-12.6c0.6-5.2,1.8-7.1,3.7-10.3c0.5-0.9,1.2-1.9,1.9-3.1c5.6-4.5,12.2-6.8,19.6-6.8c2,0,3.9,0.2,6,0.5v-0.3
    		c-2-0.3-4-0.5-6-0.5C596.2,188.1,589.6,190.4,584,195z"/>
    	<path class="st2" d="M594.1,215.9c-1.5,4.2-1.7,8.6-2,13.7c-0.1,1.8-0.2,3.6-0.4,5.6c-0.7,7.7-2.2,15.6-3.6,23.3
    		c-1.4,7.6-2.8,14.7-3,20.4v0.1l0.1,0c0.9,0.7,1.8,1.3,3,1.3c0.2,0,0.4,0,0.6-0.1l0,0c2.8-1.6,5.8-3.1,8.8-4.5
    		c4.2-2,8.4-4.1,12.3-6.7v-0.3c-3.9,2.7-8.2,4.8-12.4,6.8c-2.9,1.4-6,2.9-8.8,4.6c-0.2,0-0.3,0-0.5,0c-1,0-1.9-0.6-2.8-1.2
    		c0.3-5.6,1.6-12.7,3-20.3c1.5-7.7,3-15.6,3.6-23.3c0.2-2,0.3-3.8,0.4-5.6c0.3-5.1,0.6-9.4,2-13.6c2-5.8,6.8-9.6,12.3-9.6
    		c1,0,2.1,0.1,3.1,0.4v-0.3c-1-0.3-2.1-0.4-3.1-0.4C601,206.1,596.1,209.9,594.1,215.9z"/>
    	<path class="st2" d="M484.9,254c-5.3,0-10.7,2.6-10.7,8.5v0c1.6,5.7,9.6,12.7,16.5,12.7l0,0c1.7,0,3.3-0.4,4.6-1.3
    		c1.9-1.3,3.2-3.2,3.6-5.5c0.5-3-0.4-6.6-2.3-9.2C494.2,256,489.7,254,484.9,254z M498.6,268.3c-0.4,2.2-1.6,4.1-3.5,5.3
    		c-1.3,0.8-2.8,1.3-4.5,1.3c-6.8,0-14.6-6.9-16.3-12.5c0.1-5.7,5.3-8.2,10.5-8.2c4.7,0,9.2,1.9,11.5,5.1
    		C498.3,261.9,499.2,265.4,498.6,268.3z"/>
    	<path class="st2" d="M577.7,289L577.7,289c-0.6-0.2-1.1-0.3-1.7-0.3c-2.4,0-5,1.5-7.4,2.9c-0.9,0.5-1.9,1.1-2.8,1.5
    		c-0.5,0.3-1.1,0.5-1.6,0.8c-8.1,4-19.3,9.5-18.5,22.5c1.1,4.1,4.5,8.1,9.5,8.1l0,0c0.4,0,0.9,0,1.4-0.1
    		c9.1-3.8,14.6-14.4,18.3-23.2l0.3-0.6C576.8,296.7,578.7,292.3,577.7,289L577.7,289z M574.9,300.6l-0.3,0.7
    		c-3.7,8.8-9.2,19.3-18.2,23c-0.5,0.1-0.9,0.1-1.4,0.1l0,0c-4.9,0-8.1-4-9.2-7.9c-0.8-12.8,10.3-18.2,18.4-22.2
    		c0.5-0.3,1.1-0.5,1.6-0.8c0.9-0.4,1.9-1,2.8-1.5c2.4-1.4,5-2.9,7.3-2.9c0.5,0,1,0.1,1.5,0.2C578.4,292.3,576.6,296.7,574.9,300.6z"
    		/>
    	<path class="st2" d="M477.5,388.9c-2.7-2.5-5.4-3.8-8-3.8c-6.2,0-10.3,7.1-11.2,14c-0.7,5.3-0.5,11,0.4,15.7
    		c0.9,4.6,2.7,6.9,6.6,8.3c0.9,0.3,1.9,0.6,3.2,0.8c2,0.4,3.8,0.6,5.5,0.6l0,0c4.5,0,7.7-1.5,9.7-4.6c2.3-3.5,1.9-11.6,1.3-15.8
    		C484.2,398.2,481.5,392.6,477.5,388.9z M483.5,419.9c-1.9,3-5.1,4.4-9.4,4.4c-1.6,0-3.4-0.2-5.4-0.6c-1.3-0.3-2.3-0.5-3.2-0.8
    		c-3.8-1.3-5.5-3.5-6.4-8.1c-0.9-4.7-1.1-10.3-0.4-15.6c0.8-6.9,4.9-13.8,10.9-13.8c2.5,0,5.2,1.2,7.8,3.7c3.9,3.6,6.6,9.1,7.4,15.1
    		C485.3,408.2,485.7,416.5,483.5,419.9z"/>
    	<path class="st2" d="M30.5,483.1c2.7-0.5,5-1.1,7.2-1.6c2.7-0.7,5.3-1.3,8.5-1.8c3-0.4,6.2-0.7,9.3-0.9c6.9-0.4,14.1-0.9,20.2-4.1
    		c7.7-4,8.5-14.3,5.9-22.7c-4.5-14.2-10.2-24-17.6-30c-2.9-2.3-5.6-5-8.2-7.7c-5.3-5.3-10.8-10.7-17.9-13.6
    		c-5.4-2.2-11.7-3.8-17.7-5.4c-3.7-1-7.4-1.9-11-3c-1.7-0.5-3.5-1.2-5.4-1.9c-1-0.4-2.1-0.8-3.2-1.1v0.3c1.1,0.4,2.1,0.8,3.1,1.1
    		c1.9,0.7,3.7,1.4,5.4,1.9c3.6,1.1,7.3,2.1,11,3c6,1.6,12.3,3.2,17.7,5.4c7.1,2.9,12.5,8.3,17.8,13.5c2.6,2.6,5.4,5.4,8.3,7.7
    		c7.3,6,13,15.7,17.5,29.9c2.6,8.3,1.8,18.4-5.7,22.3c-6.1,3.2-13.2,3.7-20.1,4.2c-3.1,0.2-6.3,0.4-9.3,0.9c-3.3,0.5-6,1.2-8.6,1.8
    		c-2.2,0.5-4.5,1.1-7.2,1.6c-5,0.9-10,1.6-14.9,2.2c-5.2,0.7-10.2,1.4-14.8,2.2v0.3c4.7-0.9,9.7-1.6,14.9-2.2
    		C20.5,484.6,25.5,484,30.5,483.1z"/>
    	<path class="st2" d="M24.1,466c6.4-1.8,13-3.7,19.4-6.4c6.2-2.7,12.5-5.9,15.3-12.2c3.6-8.3,0.1-17.3-9.5-23.9
    		c-1.7-1.2-3.2-2.3-4.8-3.4c-6.4-4.7-12.5-9.1-21.2-10.8c-5.7-1.1-14-1.7-22.6-1.9v0.3c8.6,0.2,16.9,0.8,22.6,1.9
    		c8.7,1.7,14.7,6.1,21.1,10.8c1.5,1.1,3.1,2.3,4.8,3.4c9.5,6.6,13,15.4,9.4,23.6c-2.7,6.3-9,9.4-15.2,12.1
    		c-6.3,2.8-12.9,4.6-19.3,6.4c-3.3,0.9-6.8,1.9-10.2,3c-4.3,1.4-8.8,2.3-13.2,3.1v0.3c4.4-0.8,8.9-1.7,13.2-3.1
    		C17.3,467.9,20.7,466.9,24.1,466z"/>
    	<path class="st2" d="M22,499.6c6.5,0.3,13.2,0.5,19.7-0.2c6-0.6,11.5-1.8,16.8-3.1c1.3-0.3,2.6-0.6,4-0.9c1-0.2,2-0.4,3-0.7
    		c10.2-2.2,20.7-4.4,29.3-10.2c10-6.8,11.3-21,6.7-30.8c-4.2-9-11.1-16.1-17.9-23c-5.6-5.7-11.4-11.6-15.5-18.5
    		c-1.9-2.5-3.5-5-5-7.3c-4.9-7.6-8.8-13.6-19-16c-19.8-4.6-36.9-8.6-40.1-28.4c-1.1-7,0.4-12.5,1.9-17.7c1.2-4.2,2.3-8.2,2-12.6
    		l0-0.1l0,0c-0.5-0.5-1-1-1.5-1.5c-0.7-0.7-1.3-1.4-2.1-1.9l0,0H4.2c-1.4,0.1-2.5,0.3-3.5,0.5v0.3c1-0.2,2.2-0.4,3.5-0.5
    		c0.7,0.6,1.4,1.2,2,1.9c0.5,0.5,1,1,1.5,1.5c0.3,4.4-0.8,8.4-2,12.5c-1.5,5.3-3,10.8-1.9,17.9c3.2,19.9,20.4,23.9,40.3,28.6
    		c10.2,2.4,14,8.3,18.9,15.9c1.5,2.4,3.1,4.8,5,7.3c4.1,7,9.9,12.9,15.5,18.6c6.7,6.9,13.7,13.9,17.8,22.9
    		c4.5,9.7,3.2,23.8-6.7,30.5c-8.6,5.8-19,8-29.2,10.2c-1,0.2-2,0.4-3,0.6c-1.3,0.3-2.7,0.6-4,0.9c-5.3,1.2-10.8,2.4-16.8,3
    		c-6.5,0.7-13.2,0.4-19.6,0.2c-7.5-0.3-14.6-0.5-21.4,0.5v0.3C7.5,499.1,14.6,499.3,22,499.6z"/>
    	<path class="st2" d="M219.2,435.6c0.9,0.4,1.8,0.8,2.5,1.4c3.3,2.4,6.1,5.7,7.9,8.1c4.5,5.9,7.2,11.6,9,19.1
    		c2.5,10.4,9,14.6,19.5,18.2c6,2.1,12.6,3.2,19.2,3.2c3.3,0,6.6-0.3,9.7-0.8c11.3-2,18.6-8.9,19.9-18.8c0.3-2.1,0.7-4.2,1.1-6.3
    		c1.5-8.4,3.1-17.2-1.8-25c-4-6.3-11.6-7.2-19.2-7.2c-1.5,0-3,0-4.3,0.1c-1.4,0-2.8,0.1-4.2,0.1c-2.7,0-4.7-0.1-6.5-0.4
    		c-6.1-1-12.1-2.4-17.9-3.9c-9.6-2.3-18.7-4.6-27.7-4.6c-1.9,0-3.8,0.1-5.6,0.3c-2.3,0.3-4.4,2.3-5.6,5.3c-1.1,2.9-1.5,6.7,0.3,8.9
    		C216.4,434.3,217.9,435,219.2,435.6z M215.5,424.4c1.2-3,3.2-4.9,5.4-5.2c1.8-0.2,3.7-0.3,5.6-0.3c9,0,18,2.2,27.6,4.6
    		c5.8,1.4,11.8,2.9,17.9,3.9c1.8,0.3,3.8,0.4,6.5,0.4c1.4,0,2.8,0,4.2,0c1.4,0,2.9-0.1,4.3-0.1c7.5,0,15,0.8,18.9,7.1
    		c4.8,7.7,3.3,16.4,1.8,24.8c-0.4,2.1-0.8,4.3-1.1,6.4c-1.3,9.8-8.5,16.6-19.7,18.6c-3.1,0.6-6.3,0.8-9.6,0.8
    		c-6.5,0-13.2-1.1-19.1-3.1c-10.4-3.6-16.9-7.7-19.3-18.1c-1.8-7.5-4.5-13.2-9.1-19.2c-1.8-2.3-4.6-5.7-8-8.1
    		c-0.7-0.5-1.7-1-2.5-1.4c-1.4-0.7-2.8-1.3-3.6-2.3C214.3,431.2,214.1,427.7,215.5,424.4z"/>
    	<path class="st2" d="M271.4,473.7c3.4,0,6.9-0.6,8.5-1.1c0.5-0.2,1-0.4,1.4-0.6c2.7-1.3,4.3-3.5,4.4-6.2c0-2.1-0.9-4.3-2.5-6
    		c-2.2-2.2-5.2-3.1-8.2-2.2c-3.2,1-9.8,4.7-11.8,8.9c-0.7,1.4-0.8,2.8-0.3,4C264,473.2,268.1,473.7,271.4,473.7z M263.5,466.8
    		c2-4.1,8.5-7.8,11.6-8.7c0.8-0.2,1.6-0.3,2.3-0.3c2.1,0,4.1,0.8,5.6,2.4c1.6,1.6,2.4,3.7,2.4,5.8c-0.1,2.6-1.6,4.7-4.2,5.9
    		c-0.4,0.2-0.9,0.4-1.4,0.6c-1.6,0.5-5.1,1.1-8.4,1.1c-4.5,0-7.3-1-8.1-2.8C262.8,469.4,262.8,468.1,263.5,466.8z"/>
    	<path class="st2" d="M358.8,580.6c-0.1-0.7,0-1.3,0-2c0-0.7,0-1.5,0-2.2c-0.5-4.6-2.4-10.2-4.4-16.2c-2-6.1-4.1-12.3-5.1-18.4
    		c-0.4-2.5-0.7-5.3-0.9-7.9c-0.8-8.6-1.7-17.5-7.7-21.4c-2.7-1.8-6.7-2.6-12.5-2.6c-3.3,0-6.8,0.3-10.2,0.5c-1.3,0.1-2.7,0.2-4,0.3
    		c-11.9,0.7-36.6,3.8-45.3,10.3c-11.8,8.9-13.2,24.3-13,38.1c1.4,17.4,13.3,27.2,26.4,37h0.5c-13.2-9.9-25.2-19.6-26.6-37
    		c-0.2-13.7,1.2-29,12.9-37.9c8.6-6.5,33.2-9.6,45.1-10.3c1.3-0.1,2.7-0.2,4-0.3c3.4-0.3,6.9-0.5,10.2-0.5c5.8,0,9.7,0.8,12.4,2.6
    		c5.9,3.9,6.7,12.7,7.6,21.2c0.2,2.6,0.5,5.4,0.9,7.9c1,6.1,3.1,12.3,5.1,18.5c2,5.9,3.9,11.5,4.4,16.1c0.1,0.7,0.1,1.5,0,2.2
    		c0,0.7,0,1.4,0,2.1c0.6,4.5,0,9.9-1.6,15.4h0.3C358.7,590.5,359.3,585.1,358.8,580.6z"/>
    	<path class="st2" d="M40.9,582.6c-0.2-4-0.1-8,0.1-11.9c0.2-6,0.4-11.7-0.7-16.2c-2.5-11.2-16.6-19.2-29-23
    		c-3.7-1.1-7-1.5-10.7-1.2v0.3c3.6-0.3,6.9,0.1,10.6,1.2c12.3,3.7,26.3,11.7,28.8,22.7c1,4.5,0.8,10.2,0.7,16.2
    		c-0.1,3.9-0.3,8-0.1,12c0.2,4.8,0,9.3-0.4,13.4h0.3C41,591.9,41.2,587.4,40.9,582.6z"/>
    	<path class="st2" d="M344.1,578c-0.5-2.7-1.5-6-2.6-9.5c-1.5-5-3.2-10.8-4.1-16.6c-0.3-1.6-0.5-3.2-0.7-4.7
    		c-1.4-9.9-2.4-17.8-9.1-22.9c-4.5-3.5-13-5.6-22.6-5.6c-11.7,0-22.6,3-29.2,7.9c-10.7,8.1-11.2,22.5-9.6,33.1
    		c2.4,11.3,10.5,17.1,20.8,24.5c4.8,3.4,9.8,7,14.8,11.5c0.1,0.1,0.3,0.3,0.4,0.4h0.4c-0.2-0.2-0.4-0.4-0.7-0.6
    		c-5-4.6-10.2-8.3-14.8-11.6c-10.2-7.3-18.3-13.1-20.7-24.3c-1.5-10.5-1.1-24.7,9.6-32.8c6.5-4.9,17.3-7.8,29-7.8
    		c9.6,0,17.9,2.1,22.4,5.6c6.6,5.1,7.6,12.9,8.9,22.7c0.2,1.5,0.4,3.1,0.7,4.7c0.9,5.8,2.6,11.6,4.1,16.6c1.1,3.5,2,6.8,2.6,9.5
    		c1.1,5.8,0.7,12.1-1.1,17.9h0.3C344.7,590.1,345.2,583.8,344.1,578z"/>
    	<path class="st2" d="M138.8,561.2c-1.2-4.2-2.1-12-1.4-17.4c0.1-1.1,0.4-2.3,0.8-3.5c1.1-4.4,2.5-9.8-3-13.8l0,0h0
    		c-10.2-1.2-16.4,7.2-21.9,14.6c-1.4,2-2.8,3.8-4.2,5.4c-5,5.2-11.8,8.9-19,12.9c-11.1,6.2-22.7,12.6-28.1,25
    		c-1.6,3.5-2.9,7.6-4.2,11.6h0.3c1.3-4,2.6-8,4.1-11.5c5.4-12.4,16.9-18.7,28-24.9c7.2-4,14-7.7,19-13c1.4-1.6,2.8-3.5,4.2-5.4
    		c5.4-7.3,11.5-15.6,21.6-14.5c5.3,3.8,4,8.9,2.9,13.5c-0.3,1.3-0.7,2.5-0.8,3.6c-0.6,5.4,0.2,13.3,1.4,17.5
    		c1.8,6.4,4.5,12.8,7.2,19.7c2,4.9,4.1,10,5.9,15.1h0.3c-1.8-5.2-3.9-10.2-5.9-15.2C143.3,574,140.7,567.5,138.8,561.2z"/>
    	<path class="st2" d="M300.5,527.1c-6.3,0-12.6,1.9-16.7,5c-5.4,4-8.6,8.9-8,20.7c3.7,15,19.9,23.1,33.4,23.1l0,0
    		c1.8,0,3.4-0.1,5.1-0.4h0l0,0c1.8-1.5,3.6-3.4,5.3-5.7l0-0.1c4.9-15.3,4.7-27.9-0.6-34.8C315.3,529.9,308.5,527.1,300.5,527.1z
    		 M319.5,569.6c-1.7,2.3-3.4,4.1-5.2,5.6c-1.6,0.2-3.3,0.4-5,0.4l0,0c-13.4,0-29.5-8-33.1-22.8c-0.6-11.7,2.6-16.4,7.8-20.4
    		c4.1-3.1,10.3-4.9,16.6-4.9c7.9,0,14.6,2.8,18.4,7.6C324.2,541.8,324.3,554.4,319.5,569.6z"/>
    	<path class="st2" d="M231.1,569.2c-2.1-10.3-4.3-20.8-11-29.3c-3.4-4.3-7.7-6-13.1-5.2c-11.1,1.6-24.2,11.7-31.3,17.1
    		c-7.9,8.3-10.9,18.2-9.1,30.5c0.6,4.4,1.9,9.1,3.1,13.7h0.3c-1.3-4.6-2.6-9.3-3.1-13.7c-1.8-12.2,1.2-22.1,9-30.3
    		c7-5.3,20.1-15.3,31.1-17c0.8-0.1,1.7-0.2,2.4-0.2c4.1,0,7.5,1.7,10.3,5.3c6.6,8.4,8.8,18.9,11,29.1c1.9,9.2,3.8,18.7,9.1,26.4
    		c0.1,0.1,0.1,0.3,0.3,0.4h0.3c-0.1-0.1-0.3-0.3-0.4-0.5C234.9,587.8,233,578.3,231.1,569.2z"/>
    	<path class="st2" d="M301.9,546.4L301.9,546.4c-1.1-1.8-2.8-2.9-4.5-2.9c-0.5,0-1.1,0.1-1.7,0.3l0,0c-1.1,0.8-1.8,2.1-1.9,3.3
    		c-0.1,0.9,0.2,1.7,0.7,2.3c0.4,0.3,0.7,0.6,1.1,1.1l0,0h0c0.5,0.2,1.1,0.3,1.7,0.3l0,0c1.8,0,3.5-1.1,4.6-2.8l0-0.1
    		C301.9,547.4,301.9,546.9,301.9,546.4L301.9,546.4z M301.5,547.9c-1,1.7-2.6,2.7-4.3,2.7l0,0c-0.5,0-1-0.1-1.6-0.3
    		c-0.4-0.4-0.7-0.8-1.1-1c-0.5-0.6-0.7-1.3-0.7-2.1c0.1-1.1,0.8-2.3,1.8-3.1c0.5-0.2,1.1-0.3,1.6-0.3c1.6,0,3.2,1,4.2,2.7
    		C301.6,546.9,301.6,547.4,301.5,547.9z"/>
    	<path class="st2" d="M14.7,559.1c-3.5-4.3-6.8-6.1-14-7.5v0.3c7.1,1.3,10.3,3.1,13.8,7.3c6.1,7.6,9.9,21.7,10.8,31.6
    		c0.2,1.8,0.3,3.5,0.3,5.1h0.3c0-1.6-0.1-3.3-0.2-5.2C24.7,580.9,20.9,566.7,14.7,559.1z"/>
    	<path class="st2" d="M196.3,562.8c-0.4,0-0.8,0-1.2,0c-3.9,0.3-7.3,2.1-9.9,5.2c-3.7,4.4-5.3,11.1-4.6,18.9c0.3,3,0.8,6.1,1.4,9.1
    		h0.3c-0.7-3-1.2-6.1-1.4-9.1c-0.7-7.7,0.9-14.4,4.6-18.7c2.5-3,5.9-4.8,9.7-5.1c0.4,0,0.8,0,1.2,0c11.5,0,15.7,13.7,19.4,25.7
    		c0.8,2.5,1.5,5,2.3,7.2h0.3c-0.8-2.2-1.6-4.8-2.4-7.3C212.3,576.5,208,562.8,196.3,562.8z"/>
    	<path class="st2" d="M118.5,574.1c-1.9-0.3-3.9-0.4-5.8-0.4c-7.8,0-15.4,2.1-22,6.1c-6.5,3.9-11.7,9.5-15.3,16.1h0.3
    		C83,582.4,97,574,112.7,574c1.9,0,3.9,0.1,5.8,0.4c8.3,1.1,16.6,8.1,22.5,19c0.5,0.8,0.9,1.7,1.3,2.6h0.3c-0.4-0.9-0.9-1.8-1.4-2.7
    		C135.2,582.3,127,575.3,118.5,574.1z"/>
    	<path class="st2" d="M1.1,586.2c-0.1,0-0.3,0-0.4,0v0.3c0.1,0,0.3,0,0.4,0c2.2,0,4,1.4,5.1,4c0.7,1.6,1,3.5,1,5.4h0.3
    		c0-2-0.4-4-1.1-5.6C5.3,587.7,3.4,586.2,1.1,586.2z"/>
    	<path class="st2" d="M96.5,596H97c4.5-3.1,9.9-4.8,15.4-4.8c5.4,0,10.5,1.7,14.5,4.8h0.5c-4.1-3.3-9.4-5.1-15-5.1
    		C106.7,590.9,101.1,592.7,96.5,596z"/>
    	<path class="st2" d="M505.7,568.5c-3.3-6.1-6.8-12.5-9.6-19c-1.5-3.6-2.9-7.5-4.3-11.7c-6.2-17.8-13.2-38-35-38c-0.3,0-0.6,0-0.9,0
    		c-7.9,0.2-15.4,3-20.2,5.3c-1.2,0.5-2.4,1.1-3.6,1.7c-3.7,1.7-7.4,3.4-10.8,5.3c-9.9,5.5-21.3,8.1-32.2,10.7l-0.1,0
    		c-0.9,0.2-1.9,0.5-3,0.7c-7.3,1.6-16.5,3.5-19.4,12.1c-2.2,6.6-0.2,15,1.8,23.1c0.7,3,1.4,5.8,1.9,8.4c1.6,9.2,1.7,17.9,0.3,25.8
    		c-0.2,1-0.4,2-0.7,3.1h0.3c0.3-1,0.4-2,0.6-3.1c1.4-7.9,1.3-16.7-0.3-25.9c-0.5-2.7-1.1-5.5-1.9-8.5c-2-8.1-4-16.5-1.8-23
    		c2.8-8.4,11.9-10.3,19.2-11.8c1.1-0.2,2-0.4,3-0.7l0.1,0c11-2.6,22.4-5.3,32.3-10.7c3.4-1.9,7.1-3.6,10.8-5.3
    		c1.2-0.5,2.4-1.1,3.6-1.7c4.8-2.3,12.3-5,20.1-5.2c0.3,0,0.6,0,0.9,0c21.6,0,28.6,20.1,34.8,37.9c1.4,4.2,2.8,8.1,4.3,11.7
    		c2.8,6.6,6.2,12.9,9.6,19.1c2.8,5.2,5.6,10.1,7.9,15.2c2.3,5.1,4.7,9.1,7.3,12h0.4c-2.6-3-5.1-7-7.4-12.1
    		C511.2,578.7,508.5,573.8,505.7,568.5z"/>
    	<path class="st2" d="M601.9,515.2c-17.9,6.8-29.9,19.6-34.6,37c-1.3,4.9-2.2,11.1-3.1,17.1c-1.1,7.5-2.3,15.2-4.2,20.6
    		c-0.8,2.3-2,4.3-3.4,6.1h0.3c1.4-1.8,2.6-3.8,3.4-6c1.9-5.4,3.1-13.1,4.2-20.6c0.9-6,1.8-12.2,3.1-17.1
    		c4.7-17.3,16.6-30.1,34.5-36.8c1.5-0.5,4-1.2,6.2-1.7c0.5-0.1,1-0.2,1.5-0.3v-0.3c-0.5,0.1-1.1,0.2-1.6,0.3
    		C606,513.9,603.4,514.6,601.9,515.2z"/>
    	<path class="st2" d="M584.5,386.3c-5.7,1.3-11.3,4.1-16.6,6.8c-5.4,2.7-10.9,5.5-16.6,6.7c-14.8,3.2-20.2-9.7-25-21.2
    		c-0.7-1.6-1.4-3.2-2-4.7c-2.7-6-5.8-11.4-9.3-16.3c-6.9-9.7-14.8-17.4-23.6-23c-8.1-5.1-15-7.9-21.5-8.8
    		c-10.6-1.4-18.2,1.9-26.9,5.7c-1.9,0.8-3.8,1.7-5.8,2.5c-5.7,2.3-12.3,5-16.7,10.7c-3.3,4.3-5.9,9.5-8.3,14.6l-0.6,1.1
    		c-4.5,9.3-7.8,18.5-11.3,28.2c-0.8,2.2-1.6,4.4-2.3,6.6c-2.1,6-4.2,12.2-6.9,18.1c-2,4.5-5,8.4-7.9,12.2c-1.6,2.1-3.3,4.3-4.7,6.5
    		c-3.7,5.7-9.6,10.7-15.3,15.5c-2,1.8-4,3.4-5.8,5.1c-1.1,1-2.3,2.1-3.7,3.2c-5.9,5.1-12.5,10.8-14.3,18.1c-0.2,1-0.4,1.9-0.7,2.9
    		c-1.9,8.1-3.5,15.2-11.7,20.3c-7.7,4.8-17.1,6.4-25.3,7.8c-3.9,0.7-7.9,1.2-11.7,1.7c-7.1,0.9-13.8,1.8-19.8,3.4
    		c-13.9,3.7-22.3,13.3-25.1,28.6c-2.7,14.9,0,33.1,3.1,40.6c2.8,6.7,7.4,12,13,16.7h0.5c-5.7-4.7-10.4-10-13.2-16.8
    		c-3-7.4-5.8-25.5-3.1-40.4c2.8-15.2,11.1-24.7,24.9-28.4c6.1-1.6,12.7-2.5,19.8-3.4c3.8-0.5,7.8-1,11.7-1.6
    		c8.3-1.4,17.7-3,25.4-7.8c8.3-5.2,9.9-12.3,11.8-20.5c0.2-0.9,0.5-1.9,0.7-2.9c1.7-7.2,8.4-12.9,14.2-17.9c1.3-1.1,2.5-2.2,3.7-3.2
    		c1.8-1.6,3.7-3.3,5.8-5c5.7-4.8,11.5-9.8,15.3-15.6c1.5-2.2,3.1-4.4,4.8-6.5c2.9-3.8,5.9-7.7,7.9-12.2c2.6-5.9,4.8-12.1,6.9-18.2
    		c0.8-2.2,1.5-4.4,2.3-6.6c3.5-9.7,6.8-18.9,11.3-28.2l0.5-1.1c2.4-5,4.9-10.2,8.3-14.5c4.4-5.7,10.9-8.3,16.6-10.6
    		c2-0.8,4-1.7,5.8-2.5c8.7-3.8,16.2-7.1,26.7-5.7c6.5,0.9,13.3,3.7,21.4,8.8c8.7,5.5,16.7,13.2,23.6,22.9c3.4,4.8,6.5,10.2,9.2,16.2
    		c0.7,1.5,1.3,3,2,4.7c2.3,5.5,5,11.8,8.8,16.1c4.5,5,9.9,6.7,16.6,5.3c5.7-1.2,11.3-4.1,16.6-6.8c5.3-2.7,10.9-5.5,16.6-6.7
    		c9.4-2.1,18,0.3,25.2,2.9v-0.3C602.5,386.7,593.9,384.3,584.5,386.3z"/>
    	<path class="st2" d="M569.6,493c-6.7,6.5-13,12.7-21.3,15.1c-11.5,3.4-20.2-5.1-28.7-13.3c-0.5-0.5-1-1-1.5-1.5
    		c-4.3-4.1-9.4-7.3-14.4-10.3c-3.5-2.2-7.2-4.4-10.6-7c-2.5-2-5.1-3.8-7.7-5.5c-1.7-1.2-3.5-2.4-5.2-3.7c-2.8-2.1-4.8-5.3-6.7-8.5
    		c-1-1.7-2.1-3.5-3.3-5c-3.3-4.2-7.8-7.3-12.3-10.4c-8.1-5.6-15.9-10.9-16.4-22c-0.3-6.6,1.2-14.7,4.1-22.4
    		c2.8-7.2,8-15.1,14.3-21.6c4.3-4.4,8.7-6.4,13-6.1c7.7,0.7,14.3,8.8,19.1,15.8c2.9,4.1,4,8.1,5.2,12.3c0.7,2.4,1.4,4.9,2.5,7.6
    		c1.1,2.7,2.4,5.3,3.7,7.8c2,4,4.1,8.1,5.4,12.5c2.2,7.4,2.6,18-0.8,24.2c-3.3,6-1.7,16.1,1.7,21.4c3.1,4.8,10.9,7.9,17.1,10.3
    		c1.4,0.5,2.7,1.1,3.9,1.6c0.5,0.3,1.1,0.5,1.6,0.7c2,0.9,3.7,1.7,5.7,2.1c9.7,2,16.4-2.7,20.4-14.2c4.2-12.1,1.3-23.1-8.3-31.1
    		c-2.9-2.4-6.2-4.2-9.5-6c-1.5-0.8-3-1.6-4.4-2.5c-0.4-0.2-0.8-0.4-1.1-0.7c-4.2-2.5-9.5-5.6-12.3-9.3c-4.3-5.4-7.9-11.3-10.6-17.5
    		c-1.4-3.2-2.4-6.4-3.5-9.8c-0.8-2.5-1.7-5-2.6-7.6c-2.2-5.9-5.6-11.1-8-14.4c-4.6-6.2-12.8-14.5-20.9-17.6
    		c-12.9-4.8-30.3,8-38.9,17.7c-4.8,5.4-7.9,12.2-10.3,18.2c-0.7,1.6-1.3,3.3-1.9,4.8c-3.5,8.9-6.9,17.2-12.5,25
    		c-1.8,2.5-3.3,5.2-4.7,7.7c-1,1.8-2.1,3.8-3.3,5.6c-3,4.7-7.6,7.5-12.1,9.8c-2.1,1.1-4.2,2.1-6.3,3.1c-6,2.8-12.2,5.7-17.2,10.4
    		c-3.2,3-4.5,6.2-3.8,9.6c1.1,5.5,7.2,9.6,12.5,11.6c11.1,4.1,23.9,2.6,35.2,1.3l1.5-0.1c0.9-0.1,1.8-0.2,2.7-0.3
    		c5-0.5,9.7-1,14.4-3.7c0.8-0.4,1.5-0.8,2.2-1.3c7.2-4.1,13.3-7.6,21.6-9.4c5.2-1.2,12.8-1.1,17.5,1.9c2.3,1.4,3.3,3.6,4.4,6
    		c0.6,1.4,1.3,2.9,2.3,4.2c3.9,5.1,9.2,9.2,14.4,13.1c5,3.8,10.2,7.8,14.2,12.8c2.3,3,4.3,6.7,6.2,10.2c1.9,3.6,3.9,7.2,6.1,10.1
    		c4.7,5.8,11,7.7,17.9,5.6c6-1.9,12.6-7,19.1-11.9c1-0.8,1.9-1.5,2.9-2.2c3.4-2.5,6.6-5.2,9.8-7.8c8.7-7.1,16.9-13.8,26.2-17.5
    		c3.7-1.5,7.9-2.6,12.4-3.4v-0.3c-4.6,0.9-8.8,1.9-12.5,3.5c-9.3,3.8-17.6,10.5-26.3,17.6c-3.2,2.6-6.4,5.2-9.8,7.7
    		c-0.9,0.7-1.9,1.5-2.9,2.2c-6.4,4.9-13,10-19,11.8c-6.8,2.1-13,0.2-17.6-5.5c-2.2-2.8-4.1-6.3-6.1-10c-1.9-3.6-3.9-7.3-6.3-10.3
    		c-4-5-9.2-9-14.2-12.9c-5.1-3.9-10.4-7.9-14.3-13c-1-1.3-1.6-2.7-2.3-4.1c-1.1-2.3-2.1-4.6-4.5-6.1c-4.7-3-12.5-3.1-17.7-1.9
    		c-8.3,1.9-14.5,5.4-21.6,9.5c-0.7,0.4-1.5,0.8-2.2,1.3c-4.7,2.6-9.4,3.1-14.3,3.6c-0.9,0.1-1.8,0.2-2.7,0.3l-1.4,0.2
    		c-11.3,1.3-24.1,2.8-35.1-1.3c-6.6-2.4-11.5-6.9-12.3-11.4c-0.7-3.2,0.6-6.3,3.7-9.3c5-4.7,11.2-7.6,17.1-10.4c2.1-1,4.2-2,6.3-3
    		c4.5-2.3,9.1-5.2,12.2-9.9c1.2-1.8,2.2-3.7,3.3-5.6c1.4-2.6,2.9-5.2,4.7-7.7c5.6-7.8,8.9-16.2,12.5-25.1c0.6-1.6,1.3-3.2,1.9-4.9
    		c2.4-5.9,5.5-12.6,10.3-18.1c8.5-9.6,25.8-22.3,38.5-17.6c8.1,3,16.3,11.3,20.8,17.5c2.4,3.3,5.8,8.5,8,14.3c1,2.6,1.8,5.1,2.6,7.6
    		c1.1,3.4,2.2,6.7,3.6,9.9c2.7,6.2,6.2,12.1,10.6,17.6c2.9,3.7,8.2,6.8,12.4,9.4c0.4,0.2,0.8,0.4,1.2,0.7c1.4,0.9,3,1.7,4.4,2.5
    		c3.2,1.8,6.5,3.6,9.4,6c9.5,7.8,12.4,18.7,8.2,30.8c-4,11.4-10.6,15.9-20.1,14c-1.9-0.4-3.6-1.2-5.6-2.1c-0.5-0.2-1.1-0.5-1.6-0.8
    		c-1.2-0.5-2.5-1-3.9-1.6c-6.2-2.5-14-5.5-17-10.2c-3.4-5.2-4.9-15.2-1.7-21.1c3.4-6.2,2.9-17,0.8-24.4c-1.3-4.4-3.4-8.5-5.3-12.6
    		c-1.3-2.5-2.6-5.2-3.7-7.8c-1.1-2.6-1.8-5.2-2.5-7.6c-1.2-4.2-2.3-8.2-5.2-12.4c-4.9-7.1-11.6-15.3-19.4-15.9
    		c-4.4-0.4-8.9,1.7-13.3,6.1c-6.4,6.5-11.6,14.4-14.4,21.7c-2.9,7.7-4.4,15.9-4.1,22.5c0.5,11.1,8.7,16.7,16.5,22.2
    		c4.4,3.1,9,6.2,12.2,10.4c1.2,1.5,2.2,3.2,3.3,5c1.9,3.1,3.9,6.4,6.8,8.5c1.7,1.2,3.5,2.5,5.2,3.7c2.5,1.8,5.2,3.6,7.7,5.5
    		c3.3,2.6,7,4.9,10.6,7c5,3,10.1,6.2,14.3,10.3c0.5,0.5,1,1,1.6,1.5c8.5,8.3,17.3,16.8,29,13.4c8.3-2.4,14.7-8.6,21.4-15.1
    		c6.4-6.2,13-12.6,21.9-16.4c5.7-2.4,11.9-3.8,18-5v-0.3c-6.1,1.2-12.3,2.6-18.1,5.1C582.7,480.4,576.1,486.8,569.6,493z"/>
    	<path class="st2" d="M580,408.9c-4.6,1-9.3,3.3-14.2,5.7c-8.2,4.1-16.7,8.3-24.6,5.8c-14.1-4.4-19.5-19.4-24.3-32.5
    		c-1-2.7-1.9-5.2-2.9-7.7c-2.2-5.4-4.9-10.5-8.1-14.9c-5-7-11.1-11.3-17.6-15.8c-1-0.7-2-1.4-3-2.1c-5.7-4.1-12.7-8.1-20.8-6.9
    		c-2.5,0.4-5.2,1.7-7.7,3c-1.6,0.8-3.1,1.6-4.6,2.2c-1.1,0.4-2.2,0.8-3.4,1.2c-8.6,3.1-17.6,6.4-23.7,13.3c-1.8,2-3.3,4.6-4.7,7.1
    		c-0.8,1.3-1.5,2.6-2.2,3.7c-3.1,4.7-5.7,9.8-7.9,15.3c-2.3,6-3.7,12.4-5,18.6c-1.4,6.7-2.9,13.6-5.6,19.9
    		c-2.8,6.5-10.1,11.1-16.5,15.2c-1.8,1.1-3.4,2.2-4.9,3.2c-4.4,3.1-8.2,6.8-11.9,10.3c-2.4,2.3-4.9,4.8-7.5,7
    		c-6.1,5.2-8.8,14-7.2,23c3,15.8,9.1,18.4,22.4,20.6c10.1,1.7,21.9,1.3,36-1.2c8.1-1.4,15.9-6.7,23.3-11.7c2.7-1.9,5.3-3.6,7.8-5.1
    		c10.5-6.3,22.9-5,33.2,3.5c1.3,1.1,2.7,2.2,4,3.2c7.9,6.3,15.3,12.2,19.2,21.7c1.8,4.1,2.9,8.5,4,12.8c1.1,4.2,2.2,8.5,3.9,12.5
    		c2.5,6.1,7.5,12.9,13,17.7c4.7,4.2,11.8,8.6,19.1,6.5c6.7-2,10.7-9.6,14.9-17.6c2.7-5.1,5.4-10.4,9.1-14.8
    		c4.8-5.7,11.1-10.9,15.5-14.3l0.4-0.4c9.4-7.3,18.2-14.1,29.9-16.5c0.7-0.2,1.5-0.3,2.3-0.4v-0.3c-0.8,0.1-1.5,0.3-2.3,0.4
    		c-11.8,2.3-20.6,9.2-30,16.5l-0.5,0.4c-4.4,3.4-10.7,8.6-15.5,14.3c-3.7,4.4-6.4,9.7-9.1,14.9c-4.2,8-8.1,15.6-14.7,17.5
    		c-7.1,2.1-14.1-2.3-18.8-6.4c-5.4-4.7-10.4-11.6-12.9-17.6c-1.7-4.1-2.8-8.4-3.9-12.5c-1.1-4.3-2.3-8.7-4-12.8
    		c-4-9.5-11.8-15.7-19.4-21.8c-1.3-1-2.6-2.1-3.9-3.2c-10.4-8.6-23-9.9-33.6-3.6c-2.5,1.5-5.1,3.3-7.8,5.1
    		c-7.5,5.1-15.2,10.3-23.2,11.7c-14.1,2.5-25.8,2.9-35.9,1.2c-13.2-2.2-19.2-4.8-22.2-20.4c-1.7-8.9,1.1-17.6,7.1-22.7
    		c2.6-2.3,5.2-4.7,7.6-7.1c3.7-3.6,7.4-7.3,11.8-10.3c1.5-1,3.2-2.1,4.9-3.2c6.5-4.1,13.8-8.7,16.6-15.3c2.7-6.3,4.2-13.3,5.6-20
    		c1.3-6.2,2.7-12.6,5-18.5c2.2-5.5,4.8-10.6,7.8-15.3c0.8-1.2,1.5-2.4,2.2-3.7c1.5-2.5,3-5.1,4.7-7.1c6.1-6.9,15-10.2,23.6-13.3
    		c1.1-0.4,2.2-0.8,3.4-1.2c1.5-0.6,3.1-1.4,4.6-2.2c2.5-1.3,5.2-2.6,7.6-3c8-1.1,14.9,2.9,20.6,6.9c1,0.7,2,1.4,3,2
    		c6.5,4.6,12.6,8.8,17.6,15.7c3.2,4.5,5.9,9.5,8.1,14.9c1,2.4,1.9,5,2.9,7.7c4.8,13.2,10.2,28.3,24.5,32.7
    		c7.9,2.5,16.5-1.8,24.7-5.8c5-2.4,9.6-4.7,14.1-5.7c6.4-1.4,18.3-1.9,29.7-1.6v-0.3C598.3,407,586.5,407.5,580,408.9z"/>
    	<path class="st2" d="M574.3,183.1c-7.7,5.3-12.3,12.9-13.7,22.5c-0.5,3.7-0.1,7.8,0.3,11.8c0.5,4.1,0.9,8.4,0.3,12.4
    		c-0.7,4.6-3.2,8.8-6.4,10.6c-2.2,1.3-4.7,1.5-7.2,0.5c-8.3-9.7-15.1-16.1-25.4-20.3c-2.9-1.2-5.9-2.2-9.6-3.4
    		c-1.8-0.6-3.6-1.2-5.4-1.7c-11.1-3.7-22.7-7.4-41.4-5.9c-9,0.7-15.8,2.4-21.7,8.4c-3.9,3.9-6.9,8.7-9.7,13.3
    		c-2.1,3.3-4.2,6.7-6.6,9.8c-1.2,1.6-2.7,3.1-4.1,4.6c-2.1,2.2-4.3,4.5-5.9,7c-3.3,5.3-3.5,14-2.2,19.9c1.6,7.7,6.6,14.3,11.5,20.4
    		c1.2,1.5,2.4,3.2,3.6,4.9c3.3,4.7,6.7,9.6,11.5,12.1c5.2,2.7,11.3,2.8,17.1,2.4c2-0.1,4-0.7,6-1.2c2.9-0.8,5.9-1.6,8.8-1.1
    		c10.3,1.8,21.9,9,29.4,15.1c4.1,3.3,7.7,7,10.9,11.1c2.5,3.2,4.9,6.4,7.4,9.8c4.3,5.8,8.8,11.8,14,17.8c4.7,5.6,10.9,10.8,20.6,7.4
    		c5.5-1.9,10.3-5.2,14.7-8.4c6.5-4.8,12.4-11.5,18.2-18.1c5.2-6,10.2-11.7,15.1-15.1c1.3-1,2.9-1.8,5.4-2.4v-0.3
    		c-2.6,0.6-4.2,1.5-5.6,2.5c-4.9,3.5-9.9,9.1-15.1,15.2c-5.7,6.5-11.6,13.3-18.1,18c-4.5,3.4-9.1,6.5-14.6,8.4
    		c-9.6,3.3-15.7-1.9-20.4-7.3c-5.1-6-9.6-12-13.9-17.8c-2.6-3.4-5-6.6-7.5-9.8c-3.2-4.1-6.9-7.8-11-11.1
    		c-7.5-6.1-19.2-13.3-29.5-15.1c-3-0.5-6,0.3-8.9,1.1c-2,0.5-4,1.1-6,1.2c-5.7,0.4-11.8,0.4-16.9-2.3c-4.7-2.5-8.1-7.3-11.4-12
    		c-1.2-1.8-2.4-3.4-3.6-5c-4.9-6.1-9.8-12.6-11.4-20.3c-1.2-5.8-1.1-14.5,2.2-19.7c1.6-2.5,3.7-4.8,5.8-7c1.4-1.5,2.9-3,4.1-4.6
    		c2.5-3.1,4.6-6.5,6.6-9.8c2.9-4.6,5.8-9.3,9.7-13.2c5.8-5.9,12.6-7.6,21.5-8.3c18.7-1.5,30.2,2.2,41.3,5.9c1.8,0.6,3.6,1.2,5.4,1.7
    		c3.7,1.1,6.6,2.2,9.5,3.4c10.2,4.1,17,10.6,25.3,20.2l0,0l0,0c2.7,1,5.2,0.8,7.5-0.5c3.2-1.9,5.8-6.1,6.5-10.8
    		c0.6-4.1,0.2-8.3-0.3-12.5c-0.4-3.9-0.8-8-0.3-11.7c1.4-9.5,6-17,13.6-22.3c8.7-6.1,20.9-8.9,35.3-8.3v-0.3
    		C595.3,174.2,583,177,574.3,183.1z"/>
    	<path class="st2" d="M166.7,27.8c0.5,4,1.1,11.3-0.3,16.3c-2.3,8.1-8.9,15.2-15.2,22c-9,9.6-18.3,19.5-15.4,32.7
    		c1.5,7.1,5.4,11.6,11.8,13.6c5.6,1.8,12.4,1.5,20.2,1.1c14.1-0.8,23.7,1.5,29.2,3.7c5.6,2.2,10.8,5.7,15.8,9.2
    		c6.7,4.6,13.1,9,20.2,10c2.9,0.4,5.2,0.3,7.9-0.3c6.7-1.5,11.8-4.9,17.1-8.4c9.1-6.1,18.5-12.3,36.8-8.7c4,0.8,8,2,12.2,3.2
    		c13.5,4,27.4,8.1,43-0.2c14.1-7.1,22.9-20.1,31.5-32.6c4-5.8,8.1-11.9,12.7-17.2c5.8-6.8,13.8-16.1,23.6-12.9
    		c3.9,1.3,8,1.9,11.9,2.5c6.2,1,12.6,2,18.4,5.6c4.1,2.6,7.3,6.3,10.5,9.9c1.5,1.7,3,3.4,4.6,5c3.5,3.5,6.3,7.7,9.1,11.7
    		c2.3,3.4,4.7,6.9,7.6,10.1c3.8,3.4,7.1,6.3,11,9.8c4.7,4.3,9,9.4,13.1,14.3c7.9,9.4,15.4,18.3,25.2,21.2c6.9,2,14,1.8,23.1-0.8
    		c4.9-1.4,11.3-4.1,15.8-6.2c9.2-4.2,19.5-9.9,27.6-15.2c6.3-4.2,11.1-10,14.1-17.1v-0.7c-2.9,7.3-7.8,13.3-14.2,17.6
    		c-8.1,5.3-18.4,11-27.6,15.2c-4.5,2-10.9,4.8-15.7,6.2c-9.1,2.6-16.2,2.9-23,0.9c-9.7-2.8-17.1-11.7-25.1-21.1
    		c-4.1-4.9-8.4-10-13.2-14.3c-3.9-3.5-7.2-6.5-11-9.8c-2.8-3.1-5.2-6.6-7.5-10c-2.7-4-5.6-8.2-9.1-11.7c-1.6-1.6-3.1-3.3-4.6-5
    		c-3.1-3.6-6.4-7.3-10.5-9.9c-5.8-3.7-12.3-4.7-18.5-5.7c-3.9-0.6-8-1.3-11.8-2.5c-10-3.3-18,6.1-23.9,13
    		c-4.6,5.4-8.7,11.4-12.7,17.3c-8.5,12.6-17.4,25.5-31.4,32.5c-15.5,8.2-29.4,4.1-42.8,0.1c-4.2-1.2-8.2-2.4-12.2-3.2
    		c-18.4-3.7-27.8,2.6-37,8.7c-5.3,3.6-10.4,6.9-17.1,8.4c-2.6,0.6-5,0.7-7.8,0.3c-7.1-0.9-13.4-5.3-20.1-9.9c-5-3.4-10.2-7-15.9-9.2
    		c-5.6-2.1-15.2-4.5-29.3-3.7c-13.2,0.7-28.3,1.6-31.7-14.4c-2.8-13.1,6.4-22.9,15.4-32.5c6.4-6.8,13-13.9,15.3-22.1
    		c1.3-4.7,0.9-11.5,0.3-16.4c-1-7.8-3.3-15.9-5.7-24.4c-0.3-0.9-0.5-1.8-0.8-2.7h-0.3c0.3,1,0.5,1.9,0.8,2.8
    		C163.4,12,165.8,20,166.7,27.8z"/>
    	<path class="st2" d="M578.3,564.7c-1.1,5.6-1.5,11.5-2,17.1c-0.4,4.9-0.8,9.7-1.6,14.1h0.3c0.8-4.5,1.2-9.3,1.6-14.1
    		c0.5-5.6,1-11.5,2-17.1c3.7-19.6,13.4-31.3,28.4-33.9c1-0.2,1.9-0.3,2.8-0.4v-0.3c-1,0.1-1.9,0.2-2.9,0.4
    		C591.9,533.2,582,545,578.3,564.7z"/>
    	<path class="st2" d="M495.8,580.3c-1.6-5.8-4.3-11.8-6.9-17.6l-0.4-1c-1.7-3.8-3-7.9-4.5-12.2c-2.9-8.8-6-18-12-24.6
    		c-5.3-5.8-14.1-9.2-23.9-9.2c-5.5,0-10.8,1.1-15.4,3.1c-5.3,2.4-9.7,5.2-13.2,8.7c-3,2.9-7.3,4.4-11.5,5.9c-2.8,0.9-5.7,2-8.2,3.4
    		c-7.6,4.3-12.5,10.4-13.9,17.6c-1.4,6.7-1.2,15.3-1.1,23.7c0.1,5.1,0.2,10.3-0.1,15.2c0,0.8-0.1,1.8-0.2,2.7h0.3
    		c0.1-0.9,0.1-1.8,0.2-2.7c0.2-4.8,0.1-10.1,0.1-15.2c-0.1-8.3-0.3-17,1.1-23.6c1.4-7.1,6.2-13.1,13.8-17.4c2.5-1.4,5.4-2.4,8.2-3.4
    		c4.2-1.5,8.6-3,11.6-5.9c3.5-3.4,7.9-6.3,13.2-8.7c4.5-2,9.8-3.1,15.2-3.1c9.8,0,18.4,3.3,23.7,9.1c6,6.5,9,15.6,11.9,24.5
    		c1.5,4.3,2.8,8.4,4.5,12.2l0.5,1c2.6,5.8,5.2,11.7,6.8,17.5c0.9,3.3,1.7,6.9,2.5,10.4c0.4,1.8,0.8,3.5,1.2,5.2h0.3
    		c-0.4-1.7-0.8-3.4-1.2-5.3C497.6,587.2,496.8,583.6,495.8,580.3z"/>
    	<path class="st2" d="M482.9,585.4c-0.7-4.6-1.5-9.8-3.3-14.3c-0.7-1.9-1.9-3.4-3-4.9c-0.9-1.1-1.7-2.3-2.4-3.6
    		c-1-1.9-1.8-3.9-2.7-6.2c-2.4-6.3-5-12.8-11.9-14.6c-1.6-0.4-3.8-0.6-6.6-0.6c-2.9,0-6,0.2-8.8,0.5c-1.1,0.1-2.1,0.1-3.1,0.2
    		c-9,0.5-18.6,4-25.7,9.2c-8.6,6.2-11.1,16.8-12.2,24.2c-0.8,5.3-1.6,13.2,1,19.9c0.1,0.3,0.2,0.5,0.3,0.8h0.3
    		c-0.1-0.3-0.3-0.6-0.4-0.9c-2.6-6.6-1.8-14.4-1-19.7c1.1-7.3,3.6-17.8,12.1-24c7.1-5.2,16.7-8.6,25.5-9.1c0.9,0,2-0.1,3.1-0.2
    		c2.8-0.2,5.9-0.5,8.8-0.5c2.7,0,4.9,0.2,6.5,0.7c6.8,1.8,9.3,8.2,11.7,14.4c0.9,2.3,1.7,4.3,2.7,6.2c0.7,1.3,1.6,2.5,2.4,3.6
    		c1.1,1.5,2.2,3,3,4.8c1.8,4.5,2.6,9.7,3.3,14.3c0.5,3.2,0.7,6.9,0.7,10.5h0.3C483.6,592.3,483.4,588.7,482.9,585.4z"/>
    	<path class="st2" d="M609.5,551.6L609.5,551.6c-13.4,1.2-20.9,15.7-22.8,44.4h0.3c2-28.4,9.3-42.9,22.5-44.1c0.1,0,0.2,0,0.3,0
    		v-0.3C609.7,551.6,609.6,551.6,609.5,551.6L609.5,551.6z"/>
    	<path class="st2" d="M606.2,587.5c-1.5,2.4-2.9,5.2-3.2,8.4h0.3c0.3-3.1,1.7-5.9,3.1-8.2c1.2-0.7,2.3-1.1,3.4-1.2v-0.3
    		C608.6,586.3,607.5,586.7,606.2,587.5L606.2,587.5z"/>
    	<path class="st2" d="M156.5,557.9c2.2-7.2,5.9-11.5,11.8-18c0.9-1,1.9-2,3-3.2c4.2-4.3,8.9-9.2,10-14.4
    		c2.1-10.2-4.2-16.2-10.7-20.7c-3.2-2.2-6.8-4-10.3-5.7c-4.5-2.2-9.2-4.5-13-7.8c-4.1-3.5-7.6-8.6-10.5-15c-1.3-2.8-1.9-6-2.5-8.9
    		c-0.5-2.9-1.1-5.9-2.3-8.7c-5.7-12.7-13-27-25.1-37c-5.3-4.3-11.9-11.2-13.6-19.4c-1.1-5.4,0.4-10.1,1.7-13.9l0.2-0.7
    		c2.9-8.5,11.4-28.9,29.4-34c3.2-0.9,7.2-1.6,11.3-2.3c5.2-0.9,10.7-1.8,14.6-3.3c6.2-2.3,10.6-5.4,15.2-9l0.7-0.5
    		c4.5-3.4,10-7.7,17.2-7.1c6.3,0.5,13.4,3.8,19.6,9c6.3,5.3,10.4,11.7,11.5,17.6c0.7,3.8,1,6.9,1.3,9.8c0.3,2.6,0.5,5,1,7.6
    		c2.3,13.3,8.7,23.9,19,31.5c8.4,6.2,19.5,10.5,33.1,12.8c17.7,3.1,32.7-2.7,38.3-5.3c9-4.2,18.5-14.2,26.8-23.3
    		c8.2-9.1,12.6-14.4,13.6-28.8c0.3-4.6-0.1-9.1-0.4-13.4c-0.1-1.7-0.3-3.4-0.4-5.2c-0.1-1.3-0.2-2.5-0.3-3.9
    		c-0.4-4.4-0.8-8.9,0-13.5c1.7-9.6,7.2-13.8,17-12.9c12.7,1.2,23.9,9.6,28.4,21.5c3.6,9.5,0.7,19.3-1.6,27.3l-0.4,1.3
    		c-3.8,13.2-8.9,23.5-15.7,31.5c-3.9,4.5-8.1,8.7-12.2,12.8c-1.5,1.5-3.1,3.1-4.6,4.6c-2.2,2.2-4.5,4.2-6.9,6.1
    		c-2.9,2.4-5.9,4.9-8.4,7.8c-3.6,4.1-6.3,8.7-8.5,12.7c-7.1,13-12,24.5-15.1,35c-2.8,9.5-10.4,17.1-20.4,20.2
    		c-12.9,4-31.5,3.6-55.1-1.4c-11.6-2.4-18.5-9.1-20.5-19.7c-2.3-12.2-10.5-18.2-19.2-24.6c-2.2-1.6-4.5-3.4-6.8-5.2
    		c-9.2-7.6-4.6-14.7,0.2-22.3c2.2-3.4,4.4-6.9,5.4-10.4c1.5-5.6-0.4-11.5-2.3-17.2c-1-3-1.9-5.8-2.4-8.5
    		c-2.2-13.2-4.5-23.5-11.2-27.8c-3.6-2.3-8.2-2.6-14.1-0.9c-1,0.2-2,0.5-3.1,0.9c-2.3,0.7-4.9,1.4-7,1.9c-3.7,0.8-7.5,1.3-11.6,1.8
    		c-4.3,0.5-8.8,1.1-13.7,2.1c-7.5,1.5-14,5.1-19,10.4c-4.9,5.1-7.9,11.6-9,18.8c-0.4,3-0.5,5.7,0.3,8.5c2.4,8.3,10,14.2,16.7,19.4
    		c1.5,1.2,3,2.3,4.4,3.5l0.2,0.2c6.4,5.3,14.5,11.9,14.2,21c-0.3,9.4,0.9,16.2,4,22.8c4.9,10.3,11.8,16.6,23.8,21.7
    		c0.9,0.4,1.8,0.7,2.7,1.1c4.1,1.7,8.4,3.5,12.3,5.7c3.2,1.8,5.4,4.1,7.7,6.5c1.3,1.3,2.6,2.7,4.1,4c1.8,1.6,3.5,3.6,5.3,5.8
    		c4.5,5.6,9.7,12,17.6,10.4c4.1-0.8,8.1-3.6,12.3-6.5c3.7-2.6,7.6-5.3,11.9-7c7.3-2.9,17.6-3.5,28.6-4.3c6.6-0.4,13.5-0.9,19.8-1.9
    		c14.3-2.3,23.9-7.3,29.5-15.3c1.7-2.4,2.8-5,3.8-7.6c0.8-2,1.6-4.1,2.7-6c0.8-1.5,2.1-2.6,3.3-3.7c0.7-0.6,1.4-1.2,2-1.9
    		c1.1-1.3,2.2-2.6,3.3-3.9c1.2-1.4,2.4-2.9,3.7-4.3c2-2.2,4.3-4.2,6.5-6.2c2-1.9,4.2-3.8,6.1-5.8c1.6-1.7,2.9-3.5,4.1-5.3
    		c1.4-2,2.8-4.1,4.8-6c3.2-3.2,6.6-6.8,9.4-10.7c2.3-3.4,3.4-6.6,4.5-10.1c0.3-1.1,0.7-2.2,1.1-3.3c0.9-2.5,2.4-4.9,4-7.2
    		c0.9-1.4,1.8-2.8,2.6-4.2c2.9-5.3,5.4-10.6,7.4-15.7c0.5-1.5,1.1-2.9,1.6-4.4c0.2-0.6,0.4-1.2,0.7-1.8c1-2.7,2-5.5,3.1-8.2
    		c3-7.8,6-15.9,7.6-23.3c1-4.7,1.9-9.7,0.8-14.7c-3.7-17-20.2-34.8-35.3-38c-7-1.5-15.8-1.4-24.8,0.3c-15,2.8-20.5,10-19.7,25.8
    		c0.2,3.7,0.5,7.4,0.8,11c0.7,7.8,1.4,15.1,0.6,22.2c-0.5,4.1-1.8,7.7-2.8,10.1c-2.2,5.3-7.2,14.4-13.5,24.2
    		c-6.2,9.6-14.5,16.7-22.8,19.3c-15.8,5-36.9,0-49.2-11.6c-6.2-5.8-12.7-15.7-9.1-30c0.2-0.9,0.6-1.7,1-2.7c0.5-1.1,1-2.3,1.3-3.5
    		c1.9-3.3,4.3-6.2,6.6-9.1c5.2-6.5,10.2-12.6,8.3-21.3c-0.3-1.6-1.1-3.3-1.8-5.2c-1.5-3.8-3.1-7.6-1.3-9.9
    		c3.3-4.1,7.7-8.3,12.4-12.7c8.1-7.7,16.6-15.7,18.9-23.3c2.4-7.5-2.5-15-4.6-18.2c-2.3-3.4-4.9-7-7.6-10.8
    		c-2.1-2.9-4.3-5.9-6.4-8.9c-1.7-2.5-3.4-4.9-5.1-7.3c-3.8-5.5-7.5-10.7-11.2-16.3c-1.5-2.2-3-4.6-4.4-6.9
    		c-2.4-3.8-4.9-7.8-7.4-11.1c-5.5-7.3-11.7-10.4-18.5-9c-6.7,1.4-14,6.6-20.3,11.3c-0.9,0.6-1.7,1.3-2.6,1.9
    		c-11.8,8.8-25.2,18.9-28.7,30c-3,9.5,2.5,13.9,8.4,18.6c0.6,0.5,1.3,1,1.9,1.5c3.9,3.2,6.9,6.5,9.2,9.3c3.3,3.8,6.1,8.4,8.9,12.8
    		c2,3.1,3.8,6.1,5.7,8.5c6.4,8.4,14.7,12.1,22.7,15.7c7.9,3.5,16,7.1,22.1,15.1c0,0.3,0,0.6,0,0.9c0,0.8,0.1,1.7-0.2,2.5
    		c-7.3,7.9-16.4,9.9-27.7,6.1c-3.5-1.2-6.9-3-10.5-5c-8.1-4.4-16.5-8.9-26.1-6c-6.9,2.1-11.8,7-16.4,11.7
    		c-4.6,4.7-9.4,9.5-16.2,11.9c-4,1.4-8.2,1.8-14,2.2c-14.7,1.1-21.8,2.8-27.9,10.5c-8,10.2-17.8,28.1-20.8,35.5
    		c-1.2,3-1.9,5.2-2.3,6.8c-2.6,12.9,5.4,23,12.5,30.4c1.7,1.8,3.7,3.4,5.5,5c1.6,1.4,3.4,2.9,4.9,4.4c3.2,3.2,5.8,7,8.3,10.7
    		c1.3,1.9,2.6,3.8,3.9,5.6c9.9,13.2,12.9,24.7,9.7,37.3c-2.3,9.1-7.6,20.5-19.7,23.6c-4.5,1.1-9.3,1.7-14.3,2.3
    		c-4.7,0.6-9.6,1.1-14.4,2.2c-4.2,0.9-8.1,2.2-11.9,3.4c-5.3,1.6-10.4,3.3-15.6,3.9c-9.1,1.2-17.2-0.7-25.1-2.5
    		c-6.9-1.6-13.5-3.1-20-2.3v0.3c6.5-0.9,13,0.6,19.9,2.2c7.9,1.8,16,3.7,25.2,2.5c5.3-0.7,10.3-2.3,15.6-3.9
    		c3.8-1.2,7.8-2.4,11.9-3.4c4.8-1.1,9.6-1.6,14.3-2.2c5.1-0.6,9.9-1.1,14.4-2.3c9.7-2.5,16.6-10.7,19.9-23.8
    		c3.2-12.7,0.2-24.3-9.7-37.6c-1.4-1.8-2.6-3.7-3.9-5.6c-2.5-3.7-5.1-7.6-8.3-10.7c-1.6-1.6-3.3-3-4.9-4.4c-1.8-1.6-3.7-3.2-5.5-5
    		c-7.1-7.3-15-17.3-12.5-30.1c0.3-1.6,1.1-3.8,2.2-6.7c3-7.4,12.8-25.3,20.8-35.4c6-7.6,13.1-9.3,27.7-10.4c5.9-0.4,10-0.8,14.1-2.3
    		c6.9-2.4,11.7-7.3,16.3-11.9c4.8-4.9,9.4-9.6,16.3-11.7c9.6-2.9,17.9,1.6,25.9,6c3.7,2,7.1,3.8,10.5,5c11.5,3.8,20.6,1.8,28.1-6.2
    		l0-0.1c0.2-0.9,0.2-1.8,0.1-2.6c0-0.3,0-0.6,0-0.9v0l0,0c-6.2-8.1-14.3-11.8-22.2-15.3c-8-3.5-16.3-7.3-22.6-15.6
    		c-1.8-2.4-3.7-5.4-5.7-8.5c-2.8-4.4-5.7-9-9-12.9c-2.4-2.8-5.4-6.1-9.3-9.3c-0.6-0.5-1.3-1-1.9-1.5c-5.8-4.6-11.2-9-8.3-18.3
    		c3.5-11,16.8-21,28.6-29.8c0.9-0.6,1.7-1.3,2.6-1.9c6.3-4.7,13.5-9.9,20.2-11.2c6.6-1.4,12.8,1.6,18.2,8.9c2.5,3.3,5,7.3,7.4,11.1
    		c1.4,2.3,2.9,4.6,4.4,6.9c3.7,5.6,7.4,10.8,11.2,16.3c1.7,2.4,3.4,4.8,5.1,7.3c2.1,3,4.3,6,6.4,8.9c2.8,3.8,5.4,7.3,7.6,10.8
    		c2.1,3.2,7,10.6,4.6,18c-2.4,7.5-10.8,15.4-18.9,23.1c-4.7,4.5-9.2,8.7-12.4,12.8c-1.9,2.4-0.3,6.4,1.3,10.2
    		c0.7,1.8,1.5,3.5,1.8,5.1c1.9,8.6-3,14.7-8.2,21.1c-2.3,2.9-4.7,5.9-6.6,9.2l0,0.1c-0.3,1.2-0.8,2.4-1.3,3.5c-0.4,1-0.8,1.8-1,2.7
    		c-2.9,11.2,0.4,22,9.2,30.3c12.3,11.7,33.6,16.6,49.5,11.6c8.4-2.7,16.7-9.8,22.9-19.4c6.3-9.9,11.4-18.9,13.5-24.2
    		c1-2.4,2.3-6.1,2.8-10.2c0.8-7.1,0.1-14.5-0.5-22.3c-0.3-3.6-0.7-7.3-0.8-11c-0.4-8,0.8-13.6,3.8-17.5c3.1-4,8-6.5,15.7-8
    		c9-1.7,17.8-1.8,24.7-0.3c15.1,3.2,31.4,20.9,35.1,37.8c1.1,4.9,0.2,9.9-0.8,14.6c-1.6,7.4-4.7,15.5-7.6,23.2
    		c-1,2.7-2.1,5.5-3.1,8.3c-0.2,0.6-0.4,1.2-0.7,1.8c-0.5,1.4-1,2.9-1.6,4.4c-2,5.1-4.4,10.4-7.3,15.7c-0.8,1.4-1.7,2.8-2.6,4.2
    		c-1.5,2.3-3.1,4.7-4,7.3c-0.4,1.1-0.8,2.3-1.1,3.3c-1.1,3.4-2.2,6.7-4.4,10c-2.7,3.9-6.1,7.4-9.4,10.6c-1.9,1.9-3.4,4-4.8,6
    		c-1.2,1.8-2.5,3.6-4.1,5.3c-1.9,2-4.1,4-6.1,5.8c-2.2,2-4.5,4.1-6.6,6.3c-1.3,1.4-2.5,2.9-3.7,4.3c-1.1,1.3-2.2,2.6-3.3,3.9
    		c-0.6,0.7-1.3,1.3-2,1.9c-1.2,1.1-2.5,2.3-3.3,3.8c-1.1,1.9-2,4-2.8,6c-1,2.6-2.1,5.3-3.7,7.6c-5.5,8-15.1,12.9-29.3,15.2
    		c-6.2,1-13.1,1.5-19.8,1.9c-11,0.7-21.3,1.4-28.7,4.3c-4.3,1.7-8.2,4.4-11.9,7c-4.2,3-8.2,5.7-12.2,6.5
    		c-7.8,1.5-12.9-4.8-17.4-10.3c-1.8-2.2-3.5-4.3-5.3-5.9c-1.5-1.3-2.8-2.7-4.1-4c-2.3-2.4-4.5-4.7-7.7-6.5c-4-2.2-8.3-4-12.4-5.7
    		c-0.9-0.4-1.8-0.7-2.7-1.1c-11.9-5-18.8-11.2-23.7-21.5c-3.1-6.5-4.3-13.3-4-22.7c0.3-9.2-7.8-15.9-14.3-21.3l-0.2-0.2
    		c-1.4-1.2-2.8-2.3-4.4-3.5c-6.9-5.4-14.1-11-16.6-19.2c-0.8-2.8-0.7-5.4-0.3-8.4c2-14.7,12.6-25.8,27.7-28.9
    		c4.9-1,9.4-1.6,13.7-2.1c4.1-0.5,7.9-1,11.7-1.8c2.1-0.5,4.7-1.2,7-1.9c1.1-0.3,2.2-0.7,3.1-0.9c5.8-1.6,10.4-1.3,13.9,0.9
    		c6.6,4.2,8.8,14.5,11,27.6c0.5,2.8,1.4,5.6,2.4,8.6c1.9,5.7,3.8,11.5,2.4,17c-1,3.5-3.2,7-5.4,10.4c-4.9,7.7-9.6,14.9-0.2,22.6
    		c2.2,1.8,4.5,3.5,6.8,5.2c8.7,6.4,16.8,12.4,19.1,24.5c2,10.8,9,17.5,20.7,19.9c23.6,5,42.2,5.5,55.2,1.4
    		c10.2-3.2,17.9-10.8,20.6-20.4c3.1-10.5,8-22,15.1-35c2.2-3.9,4.9-8.5,8.4-12.6c2.5-2.9,5.5-5.4,8.4-7.8c2.3-1.9,4.7-3.9,6.8-6.1
    		c1.5-1.6,3.1-3.1,4.6-4.6c4.1-4.1,8.4-8.4,12.3-12.9c6.8-8,12-18.3,15.7-31.6l0.4-1.3c2.3-8,5.2-17.9,1.6-27.5
    		c-4.5-12-15.7-20.5-28.6-21.7c-9.9-0.9-15.6,3.4-17.2,13.1c-0.8,4.7-0.4,9.2,0,13.6c0.1,1.4,0.2,2.6,0.3,3.9
    		c0.1,1.8,0.3,3.5,0.4,5.1c0.4,4.3,0.7,8.8,0.4,13.4c-1,14.3-5.3,19.6-13.5,28.6c-8.3,9.1-17.8,19.1-26.7,23.3
    		c-5.6,2.6-20.6,8.4-38.2,5.3c-30.2-5.2-47.7-20.1-51.9-44.1c-0.4-2.6-0.7-5.1-0.9-7.6c-0.3-3-0.6-6-1.3-9.9
    		c-1.1-6-5.3-12.4-11.6-17.7c-6.2-5.2-13.4-8.5-19.8-9.1c-7.3-0.6-12.9,3.7-17.4,7.2l-0.7,0.5c-4.7,3.6-9.1,6.7-15.2,9
    		c-3.9,1.4-9.3,2.4-14.6,3.3c-4.2,0.7-8.1,1.4-11.3,2.3c-18.1,5.2-26.7,25.6-29.6,34.2l-0.2,0.7c-1.3,3.8-2.9,8.5-1.7,14
    		c1.8,8.3,8.4,15.2,13.7,19.6c12,10,19.4,24.2,25,36.9c1.2,2.7,1.8,5.7,2.3,8.6c0.6,3,1.2,6.1,2.5,9c2.9,6.5,6.5,11.5,10.6,15.1
    		c3.8,3.4,8.6,5.6,13.1,7.8c3.5,1.7,7.1,3.4,10.2,5.7c6.4,4.4,12.7,10.3,10.6,20.4c-1,5-5.7,9.9-9.9,14.2c-1.1,1.1-2.1,2.2-3,3.2
    		c-5.9,6.5-9.6,10.8-11.8,18c-1.6,5.4-1.8,15.1-0.3,22c1.2,5.6,2.7,11,4.2,16.2h0.3c-1.5-5.2-3-10.6-4.2-16.2
    		C154.8,572.8,154.9,563.2,156.5,557.9z"/>
    </g>
  </pattern>
</defs>
<rect x="0" y="0" width="610.4" height="596.6"
    style="fill: url(#pattern1);" />
</svg>
